<svg width="426" height="270" viewBox="0 0 426 270" fill="none" xmlns="http://www.w3.org/2000/svg">
<path d="M1.54981 264.186V224.576L47.5142 138.881C51.4233 131.263 54.702 124.408 57.3502 118.314C60.0403 112.22 62.079 106.253 63.4661 100.413C64.8533 94.4884 65.5468 88.0983 65.5468 81.2427C65.5468 73.6253 64.6851 67.0659 62.9617 61.5645C61.2383 55.9785 58.8844 51.7043 55.9 48.742C52.9156 45.695 49.5318 44.1716 45.7487 44.1716C41.7975 44.1716 38.3507 45.7797 35.4083 48.9959C32.4659 52.2121 30.1961 56.8248 28.5988 62.8341C27.0015 68.8433 26.2028 75.9951 26.2028 84.2896H0.288788C0.288788 67.2775 2.20134 52.5083 6.02645 39.982C9.85156 27.4557 15.2109 17.7648 22.1045 10.9091C28.9981 4.05354 36.9426 0.625732 45.9379 0.625732C55.1854 0.625732 63.2349 3.92658 70.0865 10.5283C76.9801 17.0453 82.3395 26.1015 86.1646 37.6968C89.9897 49.2921 91.9022 62.5801 91.9022 77.5609C91.9022 87.3788 90.9355 97.0698 89.0019 106.634C87.1103 116.198 83.7266 126.82 78.8506 138.5C73.9747 150.095 67.1021 164.018 58.2329 180.268L39.3806 217.466V219.244H93.6046V264.186H1.54981Z" fill="#FFB2DB"/>
<path d="M156.915 269.899C146.07 269.814 136.739 264.44 128.92 253.776C121.144 243.111 115.154 227.665 110.951 207.437C106.789 187.208 104.73 162.875 104.772 134.437C104.772 106.084 106.852 81.9197 111.014 61.9454C115.217 41.971 121.207 26.7786 128.983 16.3683C136.802 5.87324 146.112 0.625732 156.915 0.625732C167.718 0.625732 177.007 5.87324 184.784 16.3683C192.602 26.8633 198.613 42.0979 202.816 62.0723C207.02 81.9621 209.1 106.084 209.058 134.437C209.058 162.96 206.957 187.335 202.753 207.564C198.592 227.792 192.623 243.238 184.847 253.902C177.07 264.567 167.76 269.899 156.915 269.899ZM156.915 224.322C164.313 224.322 170.219 216.831 174.632 201.851C179.046 186.87 181.232 164.399 181.19 134.437C181.19 114.717 180.181 98.297 178.163 85.1783C176.188 72.0595 173.371 62.1993 169.714 55.5976C166.099 48.9959 161.833 45.695 156.915 45.695C149.559 45.695 143.674 53.1008 139.261 67.9123C134.847 82.7238 132.619 104.899 132.577 134.437C132.577 154.411 133.565 171.085 135.541 184.458C137.558 197.746 140.396 207.733 144.053 214.419C147.71 221.021 151.997 224.322 156.915 224.322Z" fill="#FFB2DB"/>
<path d="M221.423 264.186V224.576L267.388 138.881C271.297 131.263 274.576 124.408 277.224 118.314C279.914 112.22 281.953 106.253 283.34 100.413C284.727 94.4884 285.42 88.0983 285.42 81.2427C285.42 73.6253 284.559 67.0659 282.835 61.5645C281.112 55.9785 278.758 51.7043 275.773 48.742C272.789 45.695 269.405 44.1716 265.622 44.1716C261.671 44.1716 258.224 45.7797 255.282 48.9959C252.339 52.2121 250.07 56.8248 248.472 62.8341C246.875 68.8433 246.076 75.9951 246.076 84.2896H220.162C220.162 67.2775 222.075 52.5083 225.9 39.982C229.725 27.4557 235.084 17.7648 241.978 10.9091C248.872 4.05354 256.816 0.625732 265.811 0.625732C275.059 0.625732 283.108 3.92658 289.96 10.5283C296.854 17.0453 302.213 26.1015 306.038 37.6968C309.863 49.2921 311.776 62.5801 311.776 77.5609C311.776 87.3788 310.809 97.0698 308.875 106.634C306.984 116.198 303.6 126.82 298.724 138.5C293.848 150.095 286.976 164.018 278.106 180.268L259.254 217.466V219.244H313.478V264.186H221.423Z" fill="#FFB2DB"/>
<path d="M321.43 218.482V175.19L375.338 4.1805H393.875V64.1036H382.905L348.92 172.397V174.428H425.527V218.482H321.43ZM383.409 264.186V205.278L383.913 186.108V4.1805H409.512V264.186H383.409Z" fill="#FFB2DB"/>
</svg>
