<svg width="64" height="16" viewBox="0 0 64 16" fill="none" xmlns="http://www.w3.org/2000/svg">
<path d="M0.292893 7.29289C-0.0976311 7.68342 -0.0976311 8.31658 0.292893 8.70711L6.65685 15.0711C7.04738 15.4616 7.68054 15.4616 8.07107 15.0711C8.46159 14.6805 8.46159 14.0474 8.07107 13.6569L2.41421 8L8.07107 2.34315C8.46159 1.95262 8.46159 1.31946 8.07107 0.928932C7.68054 0.538408 7.04738 0.538408 6.65685 0.928932L0.292893 7.29289ZM63.7152 8.70711C64.1057 8.31658 64.1057 7.68342 63.7152 7.29289L57.3512 0.928932C56.9607 0.538408 56.3275 0.538408 55.937 0.928932C55.5465 1.31946 55.5465 1.95262 55.937 2.34315L61.5939 8L55.937 13.6569C55.5465 14.0474 55.5465 14.6805 55.937 15.0711C56.3275 15.4616 56.9607 15.4616 57.3512 15.0711L63.7152 8.70711ZM1 9H63.0081V7H1V9Z" fill="white"/>
</svg>
