<svg width="50" height="50" viewBox="0 0 50 50" fill="none" xmlns="http://www.w3.org/2000/svg">
<circle cx="24.6779" cy="24.9163" r="21.8605" transform="rotate(82.0377 24.6779 24.9163)" fill="#93B6EE"/>
<ellipse cx="24.1844" cy="24.5431" rx="5.39225" ry="5.68372" transform="rotate(82.0377 24.1844 24.5431)" fill="#F6FDD7"/>
<path d="M20.7467 24.653C20.5175 23.0145 21.2729 21.9785 22.4994 21.8069C23.8044 21.6244 24.3743 22.6951 24.3743 22.6951L24.4233 22.6883C24.4233 22.6883 24.6991 21.7994 25.7294 21.6553C26.7105 21.518 27.7075 22.2089 27.9092 23.6512C28.111 25.0935 27.3418 26.0314 26.3607 26.1687C25.3304 26.3128 24.8213 25.5337 24.8213 25.5337L24.7723 25.5405C24.7723 25.5405 24.518 26.7265 23.213 26.909C21.9866 27.0806 20.9759 26.2916 20.7467 24.653ZM25.8195 22.9431C25.2896 23.0173 24.9283 23.4379 25.0148 24.0561C25.1013 24.6742 25.5641 24.9796 26.094 24.9055C26.6238 24.8314 26.9655 24.4135 26.879 23.7953C26.7926 23.1772 26.3493 22.869 25.8195 22.9431ZM22.721 23.1765C22.1126 23.2616 21.6713 23.7534 21.7769 24.5089C21.8826 25.2644 22.442 25.6164 23.0503 25.5313C23.6587 25.4462 24.1 24.9543 23.9944 24.1988C23.8887 23.4433 23.3293 23.0914 22.721 23.1765Z" fill="#93B6EE"/>
</svg>
