<svg width="419" height="420" viewBox="0 0 419 420" fill="none" xmlns="http://www.w3.org/2000/svg">
<path d="M70 70H140V140H70V70Z" fill="#FF7E9A"/>
<path d="M0 0H70V70H0V0Z" fill="#FF7E9A"/>
<path d="M140 0H210V70H140V0Z" fill="#FF7E9A"/>
<path d="M210 70H280V140H210V70Z" fill="#FF7E9A"/>
<path d="M349 70H419V140H349V70Z" fill="#FF7E9A"/>
<path d="M279 0H349V70H279V0Z" fill="#FF7E9A"/>
<path d="M70 210H140V280H70V210Z" fill="#FF7E9A"/>
<path d="M0 140H70V210H0V140Z" fill="#FF7E9A"/>
<path d="M140 140H210V210H140V140Z" fill="#FF7E9A"/>
<path d="M210 210H280V280H210V210Z" fill="#FF7E9A"/>
<path d="M349 210H419V280H349V210Z" fill="#FF7E9A"/>
<path d="M279 140H349V210H279V140Z" fill="#FF7E9A"/>
<path d="M70 350H140V420H70V350Z" fill="#FF7E9A"/>
<path d="M0 280H70V350H0V280Z" fill="#FF7E9A"/>
<path d="M140 280H210V350H140V280Z" fill="#FF7E9A"/>
<path d="M210 350H280V420H210V350Z" fill="#FF7E9A"/>
<path d="M349 350H419V420H349V350Z" fill="#FF7E9A"/>
<path d="M279 280H349V350H279V280Z" fill="#FF7E9A"/>
</svg>
