<svg width="62" height="115" viewBox="0 0 62 115" fill="none" xmlns="http://www.w3.org/2000/svg">
<ellipse cx="31.4084" cy="110.06" rx="24.3652" ry="4.65091" transform="rotate(-0.679653 31.4084 110.06)" fill="#7DA9FF"/>
<rect x="28.4612" y="66.4283" width="4.165" height="39.0121" transform="rotate(-0.679653 28.4612 66.4283)" fill="#7DA9FF"/>
<path d="M5 31.5797L28.7322 66.4255L32.3078 66.3831L53.8659 31C47.5873 34.2679 34.4268 34.91 30.0319 34.9621C25.5895 35.0148 11.3445 33.8648 5 31.5797Z" fill="#7DA9FF"/>
<circle cx="31.6181" cy="15.618" r="10.5042" transform="rotate(146.865 31.6181 15.618)" fill="#E6E179"/>
<ellipse cx="30.1225" cy="15.0736" rx="4.20168" ry="4.26534" transform="rotate(146.865 30.1225 15.0736)" fill="#F6FDD7"/>
<path d="M30.5206 12.081L29.976 16.7302L29.988 16.7629L32.2972 15.9165L32.6002 16.743L29.245 17.9729L28.9377 17.1347L29.4769 12.4636L30.5206 12.081Z" fill="#E6E179"/>
<path d="M30.5206 12.081L29.976 16.7302L29.988 16.7629L32.2972 15.9165L32.6002 16.743L29.245 17.9729L28.9377 17.1347L29.4769 12.4636L30.5206 12.081Z" fill="#E6E179"/>
<circle cx="15.6182" cy="23.618" r="10.5042" transform="rotate(146.865 15.6182 23.618)" fill="#E6E179"/>
<ellipse cx="14.1227" cy="23.0736" rx="4.20168" ry="4.26534" transform="rotate(146.865 14.1227 23.0736)" fill="#F6FDD7"/>
<path d="M14.5206 20.0811L13.976 24.7304L13.988 24.763L16.2972 23.9166L16.6002 24.7432L13.245 25.973L12.9377 25.1348L13.4769 20.4637L14.5206 20.0811Z" fill="#E6E179"/>
<path d="M14.5206 20.0811L13.976 24.7304L13.988 24.763L16.2972 23.9166L16.6002 24.7432L13.245 25.973L12.9377 25.1348L13.4769 20.4637L14.5206 20.0811Z" fill="#E6E179"/>
<circle cx="29.6182" cy="25.6183" r="10.5042" transform="rotate(146.865 29.6182 25.6183)" fill="#93B6EE"/>
<ellipse cx="28.1225" cy="25.0738" rx="4.20168" ry="4.26534" transform="rotate(146.865 28.1225 25.0738)" fill="#F6FDD7"/>
<path d="M28.5206 22.0813L27.976 26.7305L27.988 26.7632L30.2972 25.9167L30.6002 26.7433L27.245 27.9731L26.9377 27.1349L27.4769 22.4638L28.5206 22.0813Z" fill="#93B6EE"/>
<path d="M28.5206 22.0813L27.976 26.7305L27.988 26.7632L30.2972 25.9167L30.6002 26.7433L27.245 27.9731L26.9377 27.1349L27.4769 22.4638L28.5206 22.0813Z" fill="#93B6EE"/>
<circle cx="45.6181" cy="24.6183" r="10.5042" transform="rotate(146.865 45.6181 24.6183)" fill="#FF80C4"/>
<ellipse cx="44.1229" cy="24.0738" rx="4.20168" ry="4.26534" transform="rotate(146.865 44.1229 24.0738)" fill="#F6FDD7"/>
<path d="M44.5204 21.0813L43.9759 25.7305L43.9879 25.7632L46.2971 24.9167L46.6001 25.7433L43.2448 26.9731L42.9376 26.1349L43.4767 21.4638L44.5204 21.0813Z" fill="#FF80C4"/>
<path d="M44.5204 21.0813L43.9759 25.7305L43.9879 25.7632L46.2971 24.9167L46.6001 25.7433L43.2448 26.9731L42.9376 26.1349L43.4767 21.4638L44.5204 21.0813Z" fill="#FF80C4"/>
</svg>
