<svg width="336" height="269" viewBox="0 0 336 269" fill="none" xmlns="http://www.w3.org/2000/svg">
<path d="M41.2822 35.9019C41.0074 31.2946 39.8282 27.7153 37.7445 25.1642C35.6609 22.613 32.833 21.3375 29.261 21.3375C26.8339 21.3375 24.7845 21.9086 23.113 23.0509C21.4415 24.1552 20.1592 25.6973 19.2662 27.6773C18.3961 29.6573 17.9611 31.9038 17.9611 34.4169C17.9153 36.5111 18.1786 38.3388 18.751 39.8999C19.3464 41.4611 20.1592 42.8128 21.1896 43.9551C22.22 45.0593 23.4107 46.0303 24.7616 46.868C26.1126 47.6676 27.5551 48.353 29.0893 48.9241L35.409 51.4372C38.4773 52.5795 41.2937 54.1026 43.8582 56.0064C46.4227 57.9103 48.6438 60.252 50.5214 63.0316C52.399 65.8112 53.853 69.0858 54.8833 72.8554C55.9366 76.625 56.4747 80.9467 56.4976 85.8206C56.4747 92.979 55.3756 99.1855 53.2004 104.44C51.048 109.657 47.9339 113.712 43.8582 116.606C39.8053 119.461 34.9167 120.889 29.1923 120.889C23.5137 120.889 18.5679 119.442 14.3547 116.549C10.1645 113.655 6.89013 109.371 4.53168 103.698C2.19613 97.9861 0.971116 90.9229 0.856628 82.5079H15.2477C15.408 86.4298 16.0835 89.7044 17.2742 92.3317C18.4877 94.9209 20.102 96.8819 22.117 98.2146C24.1549 99.5092 26.4561 100.157 29.0206 100.157C31.5393 100.157 33.726 99.5473 35.5807 98.3288C37.4583 97.1104 38.9123 95.4159 39.9427 93.2456C40.9731 91.0752 41.4883 88.5812 41.4883 85.7635C41.4883 83.1362 41.0189 80.9277 40.0801 79.1381C39.1642 77.3485 37.8132 75.8254 36.0272 74.5689C34.2641 73.3123 32.1003 72.17 29.5358 71.142L21.8766 67.9435C15.9461 65.5447 11.2636 61.7941 7.82893 56.6918C4.3943 51.5895 2.68843 44.7166 2.71133 36.0732C2.68843 28.9909 3.82186 22.8034 6.11161 17.5107C8.42426 12.2181 11.5956 8.08673 15.6255 5.11673C19.6555 2.14674 24.235 0.661743 29.364 0.661743C34.5847 0.661743 39.1413 2.14674 43.0339 5.11673C46.9494 8.08673 49.9947 12.2181 52.17 17.5107C54.3452 22.8034 55.4672 28.9338 55.5359 35.9019H41.2822Z" fill="white"/>
<path d="M129.206 60.747C129.206 73.5027 127.752 84.3546 124.844 93.3027C121.959 102.251 118.021 109.086 113.029 113.807C108.06 118.491 102.473 120.832 96.2682 120.832C90.0172 120.832 84.4073 118.471 79.4385 113.75C74.4698 109.028 70.5428 102.194 67.6578 93.2456C64.7727 84.2975 63.3301 73.4646 63.3301 60.747C63.3301 47.9912 64.7727 37.1394 67.6578 28.1913C70.5428 19.2432 74.4698 12.4275 79.4385 7.74404C84.4073 3.02251 90.0172 0.661743 96.2682 0.661743C102.473 0.661743 108.06 3.02251 113.029 7.74404C118.021 12.4275 121.959 19.2432 124.844 28.1913C127.752 37.1394 129.206 47.9912 129.206 60.747ZM114.128 60.747C114.128 52.4843 113.384 45.5163 111.896 39.8428C110.43 34.1694 108.358 29.8667 105.679 26.9348C103 24.0028 99.8631 22.5369 96.2682 22.5369C92.6733 22.5369 89.5363 24.0028 86.8573 26.9348C84.1783 29.8667 82.0946 34.1694 80.6063 39.8428C79.1409 45.5163 78.4081 52.4843 78.4081 60.747C78.4081 69.0097 79.1409 75.9777 80.6063 81.6512C82.0946 87.3246 84.1783 91.6273 86.8573 94.5592C89.5363 97.4911 92.6733 98.9571 96.2682 98.9571C99.8631 98.9571 103 97.4911 105.679 94.5592C108.358 91.6273 110.43 87.3246 111.896 81.6512C113.384 75.9777 114.128 69.0097 114.128 60.747Z" fill="white"/>
<path d="M181.737 2.26097H196.608V78.2243C196.608 86.7535 195.383 94.2165 192.933 100.613C190.506 107.01 187.106 111.998 182.733 115.578C178.359 119.119 173.264 120.889 167.448 120.889C161.61 120.889 156.503 119.119 152.13 115.578C147.757 111.998 144.356 107.01 141.929 100.613C139.502 94.2165 138.288 86.7535 138.288 78.2243V2.26097H153.16V76.111C153.16 80.566 153.744 84.526 154.912 87.991C156.103 91.456 157.774 94.1784 159.927 96.1584C162.079 98.1384 164.586 99.1284 167.448 99.1284C170.334 99.1284 172.841 98.1384 174.97 96.1584C177.123 94.1784 178.783 91.456 179.951 87.991C181.141 84.526 181.737 80.566 181.737 76.111V2.26097Z" fill="white"/>
<path d="M265.745 2.26097V119.233H252.9L222.297 45.6114H221.782V119.233H206.91V2.26097H219.962L250.324 75.8254H250.942V2.26097H265.745Z" fill="white"/>
<path d="M301.034 119.233H276.098V2.26097H301.24C308.315 2.26097 314.406 4.6027 319.512 9.28615C324.618 13.9315 328.545 20.614 331.293 29.3336C334.063 38.0532 335.449 48.4862 335.449 60.6328C335.449 72.8173 334.063 83.2885 331.293 92.0461C328.545 100.804 324.595 107.524 319.443 112.208C314.314 116.891 308.178 119.233 301.034 119.233ZM290.97 98.0433H300.415C304.812 98.0433 308.51 96.7486 311.509 94.1594C314.532 91.5321 316.799 87.4769 318.31 81.9939C319.844 76.4727 320.611 69.3523 320.611 60.6328C320.611 51.9893 319.844 44.9261 318.31 39.443C316.799 33.9599 314.543 29.9238 311.544 27.3346C308.544 24.7453 304.846 23.4507 300.45 23.4507H290.97V98.0433Z" fill="white"/>
<path d="M41.2822 183.614C41.0074 179.007 39.8282 175.428 37.7445 172.877C35.6609 170.326 32.833 169.05 29.261 169.05C26.8339 169.05 24.7845 169.621 23.113 170.763C21.4415 171.868 20.1592 173.41 19.2662 175.39C18.3961 177.37 17.9611 179.616 17.9611 182.129C17.9153 184.224 18.1786 186.051 18.751 187.612C19.3464 189.174 20.1592 190.525 21.1896 191.668C22.22 192.772 23.4107 193.743 24.7616 194.581C26.1126 195.38 27.5551 196.066 29.0893 196.637L35.409 199.15C38.4773 200.292 41.2937 201.815 43.8582 203.719C46.4227 205.623 48.6438 207.965 50.5214 210.744C52.399 213.524 53.853 216.798 54.8833 220.568C55.9366 224.338 56.4747 228.659 56.4976 233.533C56.4747 240.692 55.3756 246.898 53.2004 252.153C51.048 257.369 47.9339 261.424 43.8582 264.318C39.8053 267.174 34.9167 268.602 29.1923 268.602C23.5137 268.602 18.5679 267.155 14.3547 264.261C10.1645 261.367 6.89013 257.084 4.53168 251.41C2.19613 245.699 0.971116 238.635 0.856628 230.22H15.2477C15.408 234.142 16.0835 237.417 17.2742 240.044C18.4877 242.633 20.102 244.594 22.117 245.927C24.1549 247.222 26.4561 247.869 29.0206 247.869C31.5393 247.869 33.726 247.26 35.5807 246.041C37.4583 244.823 38.9123 243.128 39.9427 240.958C40.9731 238.788 41.4883 236.294 41.4883 233.476C41.4883 230.849 41.0189 228.64 40.0801 226.851C39.1642 225.061 37.8132 223.538 36.0272 222.281C34.2641 221.025 32.1003 219.883 29.5358 218.855L21.8766 215.656C15.9461 213.257 11.2636 209.507 7.82893 204.404C4.3943 199.302 2.68843 192.429 2.71133 183.786C2.68843 176.703 3.82186 170.516 6.11161 165.223C8.42426 159.931 11.5956 155.799 15.6255 152.829C19.6555 149.859 24.235 148.374 29.364 148.374C34.5847 148.374 39.1413 149.859 43.0339 152.829C46.9494 155.799 49.9947 159.931 52.17 165.223C54.3452 170.516 55.4672 176.646 55.5359 183.614H41.2822Z" fill="white"/>
<path d="M61.8876 170.364V149.974H119.658V170.364H98.1229V266.946H83.4227V170.364H61.8876Z" fill="white"/>
<path d="M127.238 266.946V149.974H154.989C160.302 149.974 164.835 151.554 168.59 154.714C172.369 157.836 175.242 162.272 177.211 168.022C179.204 173.733 180.2 180.454 180.2 188.184C180.2 195.951 179.192 202.634 177.177 208.231C175.162 213.79 172.243 218.055 168.419 221.025C164.618 223.995 160.015 225.48 154.612 225.48H136.03V205.604H152.207C155.047 205.604 157.405 204.956 159.283 203.662C161.16 202.367 162.557 200.425 163.473 197.836C164.412 195.247 164.881 192.029 164.881 188.184C164.881 184.3 164.412 181.025 163.473 178.36C162.557 175.694 161.149 173.676 159.248 172.306C157.371 170.897 155.001 170.192 152.139 170.192H142.11V266.946H127.238ZM165.225 213.714L182.707 266.946H166.289L149.185 213.714H165.225Z" fill="white"/>
<path d="M203.647 149.974V266.946H188.775V149.974H203.647Z" fill="white"/>
<path d="M213.949 266.946V149.974H228.82V201.549H229.748L255.061 149.974H272.887L246.784 202.348L273.196 266.946H255.405L236.136 218.855L228.82 233.704V266.946H213.949Z" fill="white"/>
<path d="M278.697 266.946V149.974H326.095V170.364H293.569V198.236H323.657V218.626H293.569V246.555H326.233V266.946H278.697Z" fill="white"/>
</svg>
