<?xml version="1.0" encoding="utf-8"?>
<!-- Generator: Adobe Illustrator 27.2.0, SVG Export Plug-In . SVG Version: 6.00 Build 0)  -->
<svg version="1.1" id="Слой_1" xmlns="http://www.w3.org/2000/svg" xmlns:xlink="http://www.w3.org/1999/xlink" x="0px" y="0px"
	 viewBox="0 0 96.4 315" style="enable-background:new 0 0 96.4 315;" xml:space="preserve">
<style type="text/css">
	.st0{fill:#FFB2DB;}
	.st1{fill:none;stroke:#FFFFFF;stroke-width:0.6613;stroke-linecap:round;}
	.st2{fill:none;stroke:#FFFFFF;stroke-linecap:round;}
</style>
<g>
	<path class="st0" d="M56.3,4l-0.4,304.7c0,2.4,2,4.4,4.4,4.3c2.4-0.1,4.2-2,4.2-4.4L58.9,4c0-0.8-0.7-1.4-1.5-1.3
		C56.8,2.7,56.3,3.3,56.3,4z"/>
	<path class="st1" d="M56.7,3.8c0.3,0,0.7,0,1,0c0.1,0,0.3,0,0.4,0c0.1,0,0.2,0,0.4,0c0,0,0.1,0,0.1,0c-0.1,0-0.3,0-0.4,0
		c-0.3,0-0.6,0-0.9,0c-0.1,0-0.7-0.2-0.8,0"/>
	<path class="st1" d="M56.4,4.8c0.5,0,0.9,0.1,1.4,0.1c0.1,0,0.2,0,0.3,0c0.2,0,0.4-0.1,0.6-0.1"/>
	<path class="st1" d="M56.4,5.8c0.5,0,1,0,1.6,0c0.3,0,0.5,0,0.8,0"/>
	<path class="st1" d="M56.1,296.7c1,0.6,2,1.4,3,2c0.3,0.2,0.6,0.4,0.9,0.6c0.3,0.2,0.6,0.5,0.9,0.7c0.4,0.3,0.9,0.6,1.2,0.9
		c0.1,0.1,0.3,0.2,0.4,0.3c0.1,0.1,0.2,0.2,0.3,0.4c0.1,0.1,0.1,0.2,0.2,0.3c0.1,0.1,0.2,0.1,0.2,0.2"/>
	<path class="st1" d="M63.1,302.1c0,0.2,0.2,0.3,0.3,0.5c0,0.1,0.1,0.2,0.2,0.3c0.1,0.2,0.2,0.4,0.3,0.6c0,0.1,0,0.3,0,0.5
		c0,0.4-0.3,0.7-0.5,1c-0.3,0.4-0.6,0.7-0.9,1c-0.2,0.2-0.4,0.4-0.6,0.7c-0.4,0.4-0.8,0.9-1.3,1.4c-0.1,0.1-0.1,0.1-0.1,0.1"/>
	<path class="st1" d="M60.5,308.1c-0.2,0.2-0.4,0.4-0.5,0.6c-0.2,0.3-0.5,0.5-0.7,0.8c-0.1,0.1-0.2,0.2-0.2,0.3
		c-0.1,0.1-0.2,0.1-0.3,0.2c-0.1,0.1-0.1,0.1-0.2,0.2c-0.1,0.1-0.2,0.1-0.2,0.2c-0.1,0.1-0.3,0.3-0.4,0.4c-0.1,0.1-0.2,0.2-0.3,0.3"
		/>
	<path class="st1" d="M59,312.1c0.6-0.6,3.9-4,4.5-4.6c0.1-0.1,0.1-0.2,0.2-0.3c0.1-0.1,0.3-0.3,0.4-0.5"/>
	<path class="st1" d="M56,295.2c0.4,0.2,0.8,0.5,1.2,0.7c0.1,0.1,0.3,0.1,0.5,0.3c0.1,0.1,0.2,0.1,0.3,0.2c0.1,0.1,0.2,0.1,0.4,0.2
		c0.3,0.1,0.6,0.3,0.9,0.5c0.2,0.1,0.5,0.3,0.7,0.4c0.1,0.1,0.5,0.4,0.4,0.3"/>
	<path class="st1" d="M60.4,297.7c0.5,0.5,1,0.8,1.6,1.2c0.2,0.1,0.4,0.2,0.5,0.3c0.1,0.1,0.3,0.2,0.4,0.3c0.2,0.2,0.4,0.3,0.6,0.5
		c0.1,0.1,0.2,0.2,0.3,0.4c0.1,0.1,0.2,0.3,0.3,0.3"/>
	<path class="st1" d="M56.1,298.1c0.2,0,0.3,0.1,0.5,0.3c0.2,0.2,0.5,0.4,0.7,0.6c0.4,0.3,0.8,0.7,1.2,1c0.6,0.5,1.2,1,1.8,1.4
		c0.2,0.2,0.5,0.3,0.7,0.5c0.3,0.3,0.5,0.5,0.7,0.8c0.1,0.2,0.4,0.4,0.4,0.7"/>
	<path class="st1" d="M61.9,303.1c0,0.4,0.1,0.8-0.3,1.2c-0.6,0.6-1.2,1.3-1.8,1.9c-0.8,0.8-1.7,1.5-2.5,2.3c-0.3,0.3-0.6,0.7-0.9,1
		"/>
	<path class="st1" d="M56.1,308.2c0.2-0.1,0.3-0.3,0.5-0.4c0.3-0.3,0.6-0.6,0.9-0.9c0.2-0.3,0.5-0.5,0.8-0.8
		c0.2-0.3,0.5-0.5,0.8-0.8c0.4-0.4,0.9-0.9,1.2-1.3c0.1-0.1,0.6-0.7,0.4-0.7"/>
	<path class="st1" d="M60.7,303.3c0-0.1-0.1-0.2-0.2-0.2c-0.1-0.1-0.3-0.3-0.4-0.4c-0.2-0.2-0.4-0.4-0.6-0.5
		c-0.1-0.1-1.3-0.9-1.4-0.8"/>
	<path class="st1" d="M58.1,301.3c-0.3,0-0.4-0.3-0.6-0.4c-0.1-0.1-0.2-0.2-0.3-0.2c-0.1-0.1-0.2-0.2-0.3-0.3
		c-0.2-0.2-0.4-0.4-0.7-0.5"/>
	<path class="st1" d="M56,295.1c0-0.2,0.2-0.5,0.4-0.6c0.4-0.5,0.7-1,1.1-1.4c0.7-0.9,1.5-1.7,2.2-2.7c0.3-0.3,0.5-0.7,0.7-1
		c0.3-0.3,0.6-0.6,0.9-1c0.3-0.4,0.6-0.7,0.9-1.1c0.5-0.5,0.9-1.1,1.4-1.6c0.1-0.1,0.1-0.1,0.1-0.2"/>
	<path class="st1" d="M63.9,285.2c-0.1,0-0.1,0-0.2-0.1c-0.4-0.4-0.8-0.8-1.2-1.2c-0.4-0.4-0.9-0.8-1.4-1.3
		c-0.9-0.8-1.8-1.5-2.7-2.4c-0.4-0.4-0.9-0.9-1.4-1.1c-0.2-0.1-0.4-0.4-0.6-0.5c0,0-0.1,0-0.1,0c0,0,0,0,0,0
		c0.1-0.1,0.2-0.2,0.3-0.3c0.6-0.6,1.2-1.1,1.7-1.7c0.8-0.9,1.6-1.8,2.6-2.5c0.8-0.5,1.4-1.2,2-1.8c0.1-0.1,0.4-0.5,0.5-0.3"/>
	<path class="st1" d="M63.7,273.4c-0.4,0-0.7,0.6-1,0.9c-0.3,0.3-0.5,0.5-0.8,0.8c-0.4,0.4-0.8,0.9-1.2,1.3c-0.3,0.3-0.5,0.7-0.7,1
		c-0.1,0.2-0.2,0.4-0.4,0.5c-0.1,0.1-0.2,0.2-0.3,0.4c-0.1,0.1-0.1,0.2-0.2,0.3c0,0-0.2,0.2-0.2,0.2c0.4,0,0.7,0.1,1,0.3
		c0.6,0.2,1.1,0.5,1.7,0.8c0.5,0.2,1,0.6,1.5,0.9c0.1,0.1,0.3,0.3,0.4,0.4c0.1,0,0.2,0.2,0.2,0.2"/>
	<path class="st1" d="M56,280.3c0,0.4,0.5,0.8,0.7,1c0.3,0.3,0.5,0.6,0.8,0.9c0.5,0.5,1,1,1.6,1.3c0.7,0.4,1.3,1,1.9,1.5"/>
	<path class="st1" d="M61.1,285.1c0.1,0.1,0.6,0.4,0.4,0.5c-0.4,0.2-0.8,0.6-1.1,0.9c-0.4,0.4-1,0.8-1.4,1.2
		c-0.8,0.7-1.7,1.3-2.3,2.1c-0.1,0.2-0.4,0.3-0.4,0.6"/>
	<path class="st1" d="M60.7,278.2c0.2,0,0.3-0.2,0.4-0.3c0.3-0.2,0.6-0.5,0.9-0.7c0.3-0.2,0.7-0.5,1-0.7c0.2-0.1,0.3-0.3,0.5-0.4
		c0.1-0.1,0.1-0.2,0.2-0.2"/>
	<path class="st1" d="M60.8,278.3c0.2,0,0.4,0,0.6,0c0.3,0,0.6,0.2,0.9,0.3c0.3,0.1,0.5,0.2,0.8,0.4c0.2,0.1,0.3,0.2,0.5,0.3
		c0,0,0.2,0.1,0.2,0.1"/>
	<path class="st1" d="M56,282.8c0.6,0.3,1,0.8,1.4,1.3c0.2,0.2,0.4,0.5,0.7,0.7c0.2,0.1,0.4,0.3,0.6,0.4c0.1,0,0.2,0.2,0.2,0.3
		c-0.1,0.1-0.3,0.2-0.4,0.3c-0.2,0.2-0.4,0.3-0.6,0.5c-0.2,0.1-0.4,0.2-0.6,0.3c-0.1,0.1-0.2,0.2-0.3,0.3c-0.2,0.1-0.4,0.3-0.5,0.4
		c-0.1,0.1-0.1,0.2-0.2,0.2"/>
	<path class="st2" d="M58.8,172.4c0.2,0,0.6-0.3,0.5-0.5c-0.2-0.4-0.7,0.1-0.8,0.3c-0.3,0.8,0.6,0.3,0.8-0.1c0.1-0.3-0.4-0.3-0.4,0
		c0,0.3-0.1,0.7,0.2,0.7c0.3,0,0.5-0.5,0.1-0.6c-0.4-0.1-0.6,0-0.6,0.4"/>
	<path class="st2" d="M58.6,178c0.4,0,1.3-0.6,0.6-0.6c-0.7,0-0.5,0.8-0.2,0.6c0.8-0.5-0.3-0.8-0.3-0.2c0,0.3,0,0.4,0.3,0.4
		c0.5,0,0.6,0,0-0.1"/>
	<path class="st2" d="M58.9,182.8c0.1,0.6,0.8-0.3,0.1-0.3c-0.3,0-0.4,0.9,0.2,0.7c0.4-0.1-0.5-1.2-0.5-0.2
		C58.7,183.5,59.3,183.1,58.9,182.8"/>
	<path class="st2" d="M59.4,188c0,0.8,0.8-0.2,0.3-0.4c-0.9-0.4-1.5,1-0.8,0.8c0.3,0,0.5-0.3,0.5-0.6c0.1-0.3-0.6-0.2-0.8-0.1
		c-0.1,0.1-0.3,0.7-0.1,0.7c0.2,0,0.2-0.4,0.1-0.2"/>
</g>
<g>
	<path class="st0" d="M85.3,4l-0.8,304.7c0,2.4,2,4.4,4.4,4.3c2.4-0.1,4.2-2,4.2-4.4L88,4c0-0.8-0.7-1.4-1.5-1.3
		C85.8,2.7,85.3,3.3,85.3,4z"/>
	<path class="st1" d="M85.8,4.1c0.3,0,0.7,0,1,0c0.1,0,0.3,0,0.4,0c0.1,0,0.2,0,0.4,0c0,0,0.1,0,0.1,0c-0.1,0-0.3,0-0.4,0
		c-0.3,0-0.6,0-0.9,0c-0.1,0-0.7-0.2-0.8,0"/>
	<path class="st1" d="M85.4,5.1c0.5,0,0.9,0.1,1.4,0.1c0.1,0,0.2,0,0.3,0c0.2,0,0.4-0.1,0.6-0.1"/>
	<path class="st1" d="M85.4,6.1c0.5,0,1,0,1.6,0c0.3,0,0.5,0,0.8,0"/>
	<path class="st1" d="M84.7,297c1,0.6,2,1.4,3,2c0.3,0.2,0.6,0.4,0.9,0.6c0.3,0.2,0.6,0.5,0.9,0.7c0.4,0.3,0.9,0.6,1.2,0.9
		c0.1,0.1,0.3,0.2,0.4,0.3c0.1,0.1,0.2,0.2,0.3,0.4c0.1,0.1,0.1,0.2,0.2,0.3c0.1,0.1,0.2,0.1,0.2,0.2"/>
	<path class="st1" d="M91.7,302.4c0,0.2,0.2,0.3,0.3,0.5c0,0.1,0.1,0.2,0.2,0.3c0.1,0.2,0.2,0.4,0.3,0.6c0,0.1,0,0.3,0,0.5
		c0,0.4-0.3,0.7-0.5,1c-0.3,0.4-0.6,0.7-0.9,1c-0.2,0.2-0.4,0.4-0.6,0.7c-0.4,0.4-0.8,0.9-1.3,1.3c-0.1,0.1-0.1,0.1-0.1,0.1"/>
	<path class="st1" d="M89.1,308.5c-0.2,0.2-0.4,0.4-0.5,0.6c-0.2,0.3-0.5,0.5-0.7,0.8c-0.1,0.1-0.2,0.2-0.2,0.3
		c-0.1,0.1-0.2,0.1-0.3,0.2c-0.1,0.1-0.1,0.1-0.2,0.2c-0.1,0.1-0.2,0.1-0.2,0.2c-0.1,0.1-0.3,0.3-0.4,0.4c-0.1,0.1-0.2,0.2-0.3,0.3"
		/>
	<path class="st1" d="M87.6,312.4c0.6-0.6,3.9-4,4.5-4.6c0.1-0.1,0.1-0.2,0.2-0.3c0.1-0.1,0.4-0.3,0.4-0.5"/>
	<path class="st1" d="M84.6,295.5c0.4,0.2,0.8,0.5,1.2,0.7c0.1,0.1,0.3,0.1,0.5,0.3c0.1,0.1,0.2,0.1,0.3,0.2
		c0.1,0.1,0.2,0.1,0.4,0.2c0.3,0.1,0.6,0.3,0.9,0.5c0.2,0.1,0.5,0.3,0.7,0.4c0.1,0.1,0.5,0.4,0.4,0.3"/>
	<path class="st1" d="M89,298c0.5,0.5,1,0.9,1.6,1.2c0.2,0.1,0.4,0.2,0.5,0.3c0.1,0.1,0.3,0.2,0.4,0.3c0.2,0.2,0.4,0.3,0.6,0.5
		c0.1,0.1,0.2,0.2,0.3,0.4c0.1,0.1,0.2,0.3,0.3,0.3"/>
	<path class="st1" d="M84.7,298.4c0.2,0,0.3,0.1,0.5,0.3c0.2,0.2,0.5,0.4,0.7,0.6c0.4,0.3,0.8,0.7,1.2,1c0.6,0.5,1.2,1,1.8,1.4
		c0.2,0.2,0.5,0.3,0.7,0.5c0.3,0.3,0.5,0.5,0.7,0.8c0.1,0.2,0.4,0.4,0.4,0.7"/>
	<path class="st1" d="M90.5,303.4c0,0.4,0.1,0.8-0.3,1.2c-0.6,0.6-1.2,1.3-1.8,1.9c-0.8,0.8-1.7,1.5-2.5,2.3c-0.3,0.3-0.6,0.7-0.9,1
		"/>
	<path class="st1" d="M84.7,308.5c0.2-0.1,0.3-0.3,0.5-0.4c0.3-0.3,0.6-0.6,0.9-0.9c0.2-0.3,0.5-0.5,0.8-0.8
		c0.2-0.3,0.5-0.5,0.8-0.8c0.4-0.4,0.9-0.9,1.2-1.3c0.1-0.1,0.6-0.7,0.4-0.7"/>
	<path class="st1" d="M89.3,303.6c0-0.1-0.1-0.2-0.2-0.2c-0.1-0.1-0.3-0.3-0.4-0.4c-0.2-0.2-0.4-0.4-0.6-0.5
		c-0.1-0.1-1.3-0.9-1.4-0.8"/>
	<path class="st1" d="M86.7,301.6c-0.3,0-0.4-0.3-0.6-0.4c-0.1-0.1-0.2-0.2-0.3-0.2c-0.1-0.1-0.2-0.2-0.3-0.3
		c-0.2-0.2-0.4-0.4-0.7-0.5"/>
	<path class="st1" d="M84.6,295.4c0-0.2,0.2-0.5,0.4-0.6c0.4-0.5,0.7-1,1.1-1.4c0.7-0.9,1.5-1.7,2.2-2.7c0.3-0.3,0.5-0.7,0.7-1
		c0.3-0.3,0.6-0.6,0.9-1c0.3-0.4,0.6-0.7,0.9-1.1c0.5-0.5,0.9-1.1,1.4-1.6c0.1-0.1,0.1-0.1,0.1-0.2"/>
	<path class="st1" d="M92.5,285.5c-0.1,0-0.1,0-0.2-0.1c-0.4-0.4-0.8-0.8-1.2-1.2c-0.4-0.4-0.9-0.8-1.4-1.3
		c-0.9-0.8-1.8-1.5-2.6-2.4c-0.4-0.4-0.9-0.9-1.4-1.1c-0.2-0.1-0.4-0.4-0.6-0.5c0,0-0.1,0-0.1,0c0,0,0,0,0,0
		c0.1-0.1,0.2-0.2,0.3-0.3c0.6-0.6,1.2-1.1,1.7-1.6c0.8-0.9,1.6-1.8,2.6-2.5c0.8-0.5,1.4-1.2,2.1-1.8c0.1-0.1,0.4-0.5,0.5-0.3"/>
	<path class="st1" d="M92.3,273.7c-0.4,0-0.7,0.6-1,0.9c-0.3,0.3-0.5,0.5-0.8,0.8c-0.4,0.4-0.8,0.9-1.2,1.3c-0.3,0.3-0.5,0.7-0.7,1
		c-0.1,0.2-0.2,0.4-0.4,0.5c-0.1,0.1-0.2,0.2-0.3,0.4c-0.1,0.1-0.1,0.2-0.2,0.3c0,0-0.3,0.2-0.2,0.2c0.4,0,0.7,0.1,1,0.3
		c0.6,0.2,1.1,0.5,1.7,0.8c0.5,0.2,1,0.6,1.5,0.9c0.1,0.1,0.3,0.3,0.4,0.4c0.1,0,0.2,0.2,0.2,0.2"/>
	<path class="st1" d="M84.7,280.6c0,0.4,0.5,0.8,0.7,1c0.3,0.3,0.5,0.6,0.8,0.9c0.5,0.5,1,1,1.6,1.3c0.7,0.4,1.3,1,1.9,1.5"/>
	<path class="st1" d="M89.7,285.4c0.1,0.1,0.6,0.4,0.4,0.5c-0.4,0.2-0.8,0.6-1.1,0.9c-0.4,0.4-1,0.8-1.4,1.2
		c-0.8,0.7-1.7,1.3-2.3,2.1c-0.1,0.2-0.4,0.3-0.4,0.5"/>
	<path class="st1" d="M89.4,278.5c0.2,0,0.3-0.2,0.4-0.3c0.3-0.2,0.6-0.5,0.9-0.7c0.3-0.2,0.7-0.5,1-0.7c0.2-0.1,0.3-0.3,0.5-0.4
		c0.1-0.1,0.1-0.2,0.2-0.2"/>
	<path class="st1" d="M89.5,278.6c0.2,0,0.4,0,0.6,0c0.3,0,0.6,0.2,0.9,0.3c0.3,0.1,0.5,0.2,0.8,0.4c0.2,0.1,0.3,0.2,0.5,0.3
		c0,0,0.2,0.1,0.2,0.1"/>
	<path class="st1" d="M84.7,283.1c0.6,0.3,1,0.8,1.4,1.3c0.2,0.2,0.4,0.5,0.7,0.7c0.2,0.1,0.4,0.3,0.6,0.4c0.1,0,0.2,0.2,0.2,0.3
		c-0.1,0.1-0.3,0.2-0.4,0.3c-0.2,0.2-0.4,0.3-0.6,0.5c-0.2,0.1-0.4,0.2-0.6,0.3c-0.1,0.1-0.2,0.2-0.3,0.3c-0.2,0.1-0.4,0.3-0.5,0.4
		c-0.1,0.1-0.1,0.2-0.2,0.2"/>
	<path class="st2" d="M86.8,84.5C85.9,84.6,86.5,85.2,86.8,84.5c0,0,0.2-0.9-0.1-0.6c-0.2,0.2,0,0.9,0.1,1c0.4,0.2,0.8,0.1,0.7-0.4
		c0-0.4-0.6,0.1-0.6,0.4c0,0.5,0.4,0.5,0.8,0.2c0.3-0.3,0.6-0.9-0.1-1c-0.5-0.1-0.6,0.1-0.6,0.6"/>
	<path class="st2" d="M87.2,89.1c0,0.2-0.2,1.6,0.3,1.5c0.3-0.1,0.4-1.1,0-1.2c-0.5-0.2-1.1-0.1-1.2,0.4c-0.1,0.4,0.1,0.6,0.5,0.6
		c0.4,0,0.8-0.3,0.8-0.7c0-0.3-0.8-0.6-0.8-0.3c0,0.4-0.3,0.8,0.2,0.8c0.5,0,0.3-0.4,0.6-0.6"/>
	<path class="st2" d="M87.5,94.2c0,0,0.2-0.3-0.1-0.2C87.1,94,87,94.3,87,94.6c0,0.4,0.4,0.3,0.5,0c0.1-0.4,0-0.8-0.5-0.7
		c-0.2,0-0.3,1.1-0.1,1.1c0.4,0.1,0.7-0.1,0.7-0.6c0-0.5-0.5-0.4-0.7,0c-0.4,0.8,0.8,0.9,0.8,0.2"/>
</g>
<g>
	<path class="st0" d="M33.6,4l-0.8,304.7c0,2.4,2,4.4,4.4,4.3c2.4-0.1,4.2-2,4.2-4.4L36.3,4c0-0.8-0.7-1.4-1.5-1.3
		C34.1,2.7,33.6,3.3,33.6,4z"/>
	<path class="st1" d="M34.1,3.9c0.3,0,0.7,0,1,0c0.1,0,0.3,0,0.4,0c0.1,0,0.2,0,0.4,0c0,0,0.1,0,0.1,0c-0.1,0-0.3,0-0.4,0
		c-0.3,0-0.6,0-0.9,0c-0.1,0-0.7-0.2-0.8,0"/>
	<path class="st1" d="M33.8,5C34.2,5,34.7,5,35.1,5c0.1,0,0.2,0,0.3,0c0.2,0,0.4-0.1,0.6-0.1"/>
	<path class="st1" d="M33.8,6c0.5,0,1,0,1.6,0c0.3,0,0.5,0,0.8,0"/>
	<path class="st1" d="M33,296.9c1,0.6,2,1.4,3,2c0.3,0.2,0.6,0.4,0.9,0.6c0.3,0.2,0.6,0.5,0.9,0.7c0.4,0.3,0.9,0.6,1.2,0.9
		c0.1,0.1,0.3,0.2,0.4,0.3c0.1,0.1,0.2,0.2,0.3,0.4c0.1,0.1,0.1,0.2,0.2,0.3c0.1,0.1,0.2,0.1,0.2,0.2"/>
	<path class="st1" d="M40,302.3c0,0.2,0.2,0.3,0.3,0.5c0,0.1,0.1,0.2,0.2,0.3c0.1,0.2,0.2,0.4,0.3,0.6c0,0.1,0,0.3,0,0.5
		c0,0.4-0.3,0.7-0.5,1c-0.3,0.4-0.6,0.7-0.9,1c-0.2,0.2-0.4,0.4-0.6,0.7c-0.4,0.4-0.8,0.9-1.3,1.4c-0.1,0.1-0.1,0.1-0.1,0.1"/>
	<path class="st1" d="M37.4,308.3c-0.2,0.2-0.4,0.4-0.5,0.6c-0.2,0.3-0.5,0.5-0.7,0.8c-0.1,0.1-0.2,0.2-0.2,0.3
		c-0.1,0.1-0.2,0.1-0.3,0.2c-0.1,0.1-0.1,0.1-0.2,0.2c-0.1,0.1-0.2,0.1-0.2,0.2c-0.1,0.1-0.3,0.3-0.4,0.4c-0.1,0.1-0.2,0.2-0.3,0.3"
		/>
	<path class="st1" d="M36,312.3c0.6-0.6,3.9-4,4.5-4.6c0.1-0.1,0.1-0.2,0.2-0.3c0.1-0.1,0.4-0.3,0.4-0.5"/>
	<path class="st1" d="M33,295.3c0.4,0.2,0.8,0.5,1.2,0.7c0.1,0.1,0.3,0.1,0.5,0.3c0.1,0.1,0.2,0.1,0.3,0.2c0.1,0.1,0.2,0.1,0.4,0.2
		c0.3,0.1,0.6,0.3,0.9,0.5c0.2,0.1,0.5,0.3,0.7,0.4c0.1,0.1,0.5,0.4,0.4,0.3"/>
	<path class="st1" d="M37.3,297.8c0.5,0.5,1,0.8,1.6,1.2c0.2,0.1,0.4,0.2,0.5,0.3c0.1,0.1,0.3,0.2,0.4,0.3c0.2,0.2,0.4,0.3,0.6,0.5
		c0.1,0.1,0.2,0.2,0.3,0.4c0.1,0.1,0.2,0.3,0.3,0.3"/>
	<path class="st1" d="M33,298.2c0.2,0,0.3,0.1,0.5,0.3c0.2,0.2,0.5,0.4,0.7,0.6c0.4,0.3,0.8,0.7,1.2,1c0.6,0.5,1.2,1,1.8,1.4
		c0.2,0.2,0.5,0.3,0.7,0.5c0.3,0.3,0.5,0.5,0.7,0.8c0.1,0.2,0.4,0.4,0.4,0.7"/>
	<path class="st1" d="M38.8,303.2c0,0.4,0.1,0.8-0.3,1.2c-0.6,0.6-1.2,1.3-1.8,1.9c-0.8,0.8-1.7,1.5-2.5,2.3c-0.3,0.3-0.6,0.7-0.9,1
		"/>
	<path class="st1" d="M33,308.3c0.2-0.1,0.3-0.3,0.5-0.4c0.3-0.3,0.6-0.6,0.9-0.9c0.2-0.3,0.5-0.5,0.8-0.8c0.2-0.3,0.5-0.5,0.8-0.8
		c0.4-0.4,0.9-0.9,1.2-1.3c0.1-0.1,0.6-0.7,0.4-0.7"/>
	<path class="st1" d="M37.6,303.4c0-0.1-0.1-0.2-0.2-0.2c-0.1-0.1-0.3-0.3-0.4-0.4c-0.2-0.2-0.4-0.4-0.6-0.5
		c-0.1-0.1-1.3-0.9-1.4-0.8"/>
	<path class="st1" d="M35,301.4c-0.3,0-0.4-0.3-0.6-0.4c-0.1-0.1-0.2-0.2-0.3-0.2c-0.1-0.1-0.2-0.2-0.3-0.3
		c-0.2-0.2-0.4-0.4-0.7-0.5"/>
	<path class="st1" d="M32.9,295.2c0-0.2,0.2-0.5,0.4-0.6c0.4-0.5,0.7-1,1.1-1.4c0.7-0.9,1.5-1.7,2.2-2.7c0.3-0.3,0.5-0.7,0.7-1
		c0.3-0.3,0.6-0.6,0.9-1c0.3-0.4,0.6-0.7,0.9-1.1c0.5-0.5,0.9-1.1,1.4-1.6c0.1-0.1,0.1-0.1,0.1-0.2"/>
	<path class="st1" d="M40.8,285.3c-0.1,0-0.1,0-0.2-0.1c-0.4-0.4-0.8-0.8-1.2-1.2c-0.4-0.4-0.9-0.8-1.4-1.3
		c-0.9-0.8-1.8-1.5-2.6-2.4c-0.4-0.4-0.9-0.9-1.4-1.1c-0.2-0.1-0.4-0.4-0.6-0.5c0,0-0.1,0-0.1,0c0,0,0,0,0,0
		c0.1-0.1,0.2-0.2,0.3-0.3c0.6-0.6,1.2-1.1,1.7-1.6c0.8-0.9,1.6-1.8,2.6-2.5c0.8-0.5,1.4-1.2,2.1-1.8c0.1-0.1,0.4-0.5,0.5-0.3"/>
	<path class="st1" d="M40.6,273.5c-0.4,0-0.7,0.6-1,0.9c-0.3,0.3-0.5,0.5-0.8,0.8c-0.4,0.4-0.8,0.9-1.2,1.3c-0.3,0.3-0.5,0.7-0.7,1
		c-0.1,0.2-0.2,0.4-0.4,0.5c-0.1,0.1-0.2,0.2-0.3,0.4c-0.1,0.1-0.1,0.2-0.2,0.3c0,0-0.3,0.2-0.2,0.2c0.4,0,0.7,0.1,1,0.3
		c0.6,0.2,1.1,0.5,1.7,0.8c0.5,0.2,1,0.6,1.5,0.9c0.1,0.1,0.3,0.3,0.4,0.4c0.1,0,0.2,0.2,0.2,0.2"/>
	<path class="st1" d="M33,280.5c0,0.4,0.5,0.8,0.7,1c0.3,0.3,0.5,0.6,0.8,0.9c0.5,0.5,1,1,1.6,1.3c0.7,0.4,1.3,1,1.9,1.5"/>
	<path class="st1" d="M38,285.2c0.1,0.1,0.6,0.4,0.4,0.5c-0.4,0.2-0.8,0.6-1.1,0.9c-0.4,0.4-1,0.8-1.4,1.2c-0.8,0.7-1.7,1.3-2.3,2.1
		c-0.1,0.2-0.4,0.3-0.4,0.5"/>
	<path class="st1" d="M37.7,278.3c0.2,0,0.3-0.2,0.4-0.3c0.3-0.2,0.6-0.5,0.9-0.7c0.3-0.2,0.7-0.5,1-0.7c0.2-0.1,0.3-0.3,0.5-0.4
		c0.1-0.1,0.1-0.2,0.2-0.2"/>
	<path class="st1" d="M37.8,278.5c0.2,0,0.4,0,0.6,0c0.3,0,0.6,0.2,0.9,0.3c0.3,0.1,0.5,0.2,0.8,0.4c0.2,0.1,0.3,0.2,0.5,0.3
		c0,0,0.2,0.1,0.2,0.1"/>
	<path class="st1" d="M33,282.9c0.6,0.3,1,0.8,1.4,1.3c0.2,0.2,0.4,0.5,0.7,0.7c0.2,0.1,0.4,0.3,0.6,0.4c0.1,0,0.2,0.2,0.2,0.3
		c-0.1,0.1-0.3,0.2-0.4,0.3c-0.2,0.2-0.4,0.3-0.6,0.5c-0.2,0.1-0.4,0.2-0.6,0.3c-0.1,0.1-0.2,0.2-0.3,0.3c-0.2,0.1-0.4,0.3-0.5,0.4
		c-0.1,0.1-0.1,0.2-0.2,0.2"/>
	<path class="st2" d="M33.3,122.7c0.7,0.3,1.3,0.8,1.9,1.2c0.4,0.2,0.7,0.4,1.1,0.7c0.3,0.2,0.7,0.4,1,0.7c0.3,0.2,0.6,0.4,0.8,0.7
		c0.1,0.1,0.3,0.1,0.4,0.3"/>
	<path class="st2" d="M33.3,124.9c0.7,0.4,1.3,0.8,1.9,1.2c0.4,0.2,0.7,0.4,1.1,0.7c0.3,0.2,0.7,0.4,1,0.7c0.3,0.2,0.6,0.4,0.8,0.7
		c0.1,0.1,0.3,0.1,0.4,0.3"/>
	<path class="st2" d="M33.3,127.1c0.7,0.4,1.3,0.8,1.9,1.2c0.4,0.2,0.7,0.4,1.1,0.7c0.3,0.2,0.7,0.4,1,0.7c0.3,0.2,0.6,0.4,0.8,0.7
		c0.1,0.1,0.3,0.1,0.4,0.3"/>
	<path class="st2" d="M33.3,129.3c0.7,0.4,1.3,0.8,1.9,1.2c0.4,0.2,0.7,0.4,1.1,0.7c0.3,0.2,0.7,0.4,1,0.7c0.3,0.2,0.6,0.4,0.8,0.7
		c0.1,0.1,0.3,0.1,0.4,0.3"/>
	<path class="st2" d="M33.3,131.5c0.7,0.3,1.3,0.8,1.9,1.2c0.4,0.2,0.7,0.4,1.1,0.7c0.3,0.2,0.7,0.4,1,0.7c0.3,0.2,0.6,0.4,0.8,0.7
		c0.1,0.1,0.3,0.1,0.4,0.3"/>
	<path class="st2" d="M33.3,133.7c0.7,0.3,1.3,0.8,1.9,1.2c0.4,0.2,0.7,0.4,1.1,0.7c0.3,0.2,0.7,0.4,1,0.7c0.3,0.2,0.6,0.4,0.8,0.7
		c0.1,0.1,0.3,0.1,0.4,0.3"/>
</g>
<g>
	<path class="st0" d="M4.6,4L4.2,308.7c0,2.4,2,4.4,4.4,4.3c2.4-0.1,4.2-2,4.2-4.4L7.3,4c0-0.8-0.7-1.4-1.5-1.3
		C5.1,2.7,4.6,3.3,4.6,4z"/>
	<path class="st1" d="M5.1,4c0.3,0,0.7,0,1,0c0.1,0,0.3,0,0.4,0c0.1,0,0.2,0,0.4,0c0,0,0.1,0,0.1,0C6.8,4,6.7,4,6.5,4
		C6.2,4,5.9,4,5.7,4C5.6,4,4.9,3.8,4.9,4"/>
	<path class="st1" d="M4.7,5C5.2,5,5.6,5,6.1,5c0.1,0,0.2,0,0.3,0C6.6,5,6.8,4.9,7,4.9"/>
	<path class="st1" d="M4.7,6c0.5,0,1,0,1.6,0c0.3,0,0.5,0,0.8,0"/>
	<path class="st1" d="M4.4,296.9c1,0.6,2,1.4,3,2c0.3,0.2,0.6,0.4,0.9,0.6c0.3,0.2,0.6,0.5,0.9,0.7c0.4,0.3,0.9,0.6,1.2,0.9
		c0.1,0.1,0.3,0.2,0.4,0.3c0.1,0.1,0.2,0.2,0.3,0.4c0.1,0.1,0.1,0.2,0.2,0.3c0.1,0.1,0.2,0.1,0.2,0.2"/>
	<path class="st1" d="M11.4,302.3c0,0.2,0.2,0.3,0.3,0.5c0,0.1,0.1,0.2,0.2,0.3c0.1,0.2,0.2,0.4,0.3,0.6c0,0.1,0,0.3,0,0.5
		c0,0.4-0.3,0.7-0.5,1c-0.3,0.4-0.6,0.7-0.9,1c-0.2,0.2-0.4,0.4-0.6,0.7c-0.4,0.4-0.8,0.9-1.3,1.4c-0.1,0.1-0.1,0.1-0.1,0.1"/>
	<path class="st1" d="M8.8,308.3c-0.2,0.2-0.4,0.4-0.5,0.6c-0.2,0.3-0.5,0.5-0.7,0.8c-0.1,0.1-0.2,0.2-0.2,0.3
		c-0.1,0.1-0.2,0.1-0.3,0.2c-0.1,0.1-0.1,0.1-0.2,0.2c-0.1,0.1-0.2,0.1-0.2,0.2c-0.1,0.1-0.3,0.3-0.4,0.4c-0.1,0.1-0.2,0.2-0.3,0.3"
		/>
	<path class="st1" d="M7.4,312.3c0.6-0.6,3.9-4,4.5-4.6c0.1-0.1,0.1-0.2,0.2-0.3c0.1-0.1,0.3-0.3,0.4-0.5"/>
	<path class="st1" d="M4.3,295.3c0.4,0.2,0.8,0.5,1.2,0.7c0.1,0.1,0.3,0.1,0.5,0.3c0.1,0.1,0.2,0.1,0.3,0.2c0.1,0.1,0.2,0.1,0.4,0.2
		c0.3,0.1,0.6,0.3,0.9,0.5c0.2,0.1,0.5,0.3,0.7,0.4c0.1,0.1,0.5,0.4,0.4,0.3"/>
	<path class="st1" d="M8.7,297.8c0.5,0.5,1,0.8,1.6,1.2c0.2,0.1,0.4,0.2,0.5,0.3c0.1,0.1,0.3,0.2,0.4,0.3c0.2,0.2,0.4,0.3,0.6,0.5
		c0.1,0.1,0.2,0.2,0.3,0.4c0.1,0.1,0.2,0.3,0.3,0.3"/>
	<path class="st1" d="M4.4,298.2c0.2,0,0.3,0.1,0.5,0.3c0.2,0.2,0.5,0.4,0.7,0.6c0.4,0.3,0.8,0.7,1.2,1c0.6,0.5,1.2,1,1.8,1.4
		c0.2,0.2,0.5,0.3,0.7,0.5c0.3,0.3,0.5,0.5,0.7,0.8c0.1,0.2,0.4,0.4,0.4,0.7"/>
	<path class="st1" d="M10.2,303.2c0,0.4,0.1,0.8-0.3,1.2c-0.6,0.6-1.2,1.3-1.8,1.9c-0.8,0.8-1.7,1.5-2.5,2.3c-0.3,0.3-0.6,0.7-0.9,1
		"/>
	<path class="st1" d="M4.4,308.3c0.2-0.1,0.3-0.3,0.5-0.4c0.3-0.3,0.6-0.6,0.9-0.9c0.2-0.3,0.5-0.5,0.8-0.8c0.2-0.3,0.5-0.5,0.8-0.8
		c0.4-0.4,0.9-0.9,1.2-1.3c0.1-0.1,0.6-0.7,0.4-0.7"/>
	<path class="st1" d="M9,303.4c0-0.1-0.1-0.2-0.2-0.2c-0.1-0.1-0.3-0.3-0.4-0.4c-0.2-0.2-0.4-0.4-0.6-0.5c-0.1-0.1-1.3-0.9-1.4-0.8"
		/>
	<path class="st1" d="M6.4,301.4c-0.3,0-0.4-0.3-0.6-0.4c-0.1-0.1-0.2-0.2-0.3-0.2c-0.1-0.1-0.2-0.2-0.3-0.3
		c-0.2-0.2-0.4-0.4-0.7-0.5"/>
	<path class="st1" d="M4.3,295.2c0-0.2,0.2-0.5,0.4-0.6c0.4-0.5,0.7-1,1.1-1.4c0.7-0.9,1.5-1.7,2.2-2.7c0.3-0.3,0.5-0.7,0.7-1
		c0.3-0.3,0.6-0.6,0.9-1c0.3-0.4,0.6-0.7,0.9-1.1c0.5-0.5,0.9-1.1,1.4-1.6c0.1-0.1,0.1-0.1,0.1-0.2"/>
	<path class="st1" d="M12.2,285.3c-0.1,0-0.1,0-0.2-0.1c-0.4-0.4-0.8-0.8-1.2-1.2c-0.4-0.4-0.9-0.8-1.4-1.3
		c-0.9-0.8-1.8-1.5-2.7-2.3c-0.4-0.4-0.9-0.9-1.4-1.1c-0.2-0.1-0.4-0.4-0.6-0.5c0,0-0.1,0-0.1,0c0,0,0,0,0,0
		c0.1-0.1,0.2-0.2,0.3-0.3c0.6-0.6,1.2-1.1,1.7-1.7c0.8-0.9,1.6-1.8,2.6-2.5c0.8-0.5,1.4-1.2,2-1.8c0.1-0.1,0.4-0.5,0.5-0.3"/>
	<path class="st1" d="M12,273.5c-0.4,0-0.7,0.6-1,0.9c-0.3,0.3-0.5,0.5-0.8,0.8c-0.4,0.4-0.8,0.9-1.2,1.3c-0.3,0.3-0.5,0.7-0.7,1
		c-0.1,0.2-0.2,0.4-0.4,0.5c-0.1,0.1-0.2,0.2-0.3,0.4c-0.1,0.1-0.1,0.2-0.2,0.3c0,0-0.3,0.2-0.2,0.2c0.4,0,0.7,0.1,1,0.3
		c0.6,0.2,1.1,0.5,1.7,0.8c0.5,0.2,1,0.6,1.5,0.9c0.1,0.1,0.3,0.3,0.4,0.4c0.1,0,0.2,0.2,0.2,0.2"/>
	<path class="st1" d="M4.3,280.5c0,0.4,0.5,0.8,0.7,1c0.3,0.3,0.5,0.6,0.8,0.9c0.5,0.5,1,1,1.6,1.3c0.7,0.4,1.3,1,1.9,1.5"/>
	<path class="st1" d="M9.4,285.2c0.1,0.1,0.6,0.4,0.4,0.5c-0.4,0.2-0.8,0.6-1.1,0.9c-0.4,0.4-1,0.8-1.4,1.2
		c-0.8,0.7-1.7,1.3-2.3,2.1c-0.1,0.2-0.4,0.3-0.4,0.5"/>
	<path class="st1" d="M9.1,278.3c0.2,0,0.3-0.2,0.4-0.3c0.3-0.2,0.6-0.5,0.9-0.7c0.3-0.2,0.7-0.5,1-0.7c0.2-0.1,0.3-0.3,0.5-0.4
		c0.1-0.1,0.1-0.2,0.2-0.2"/>
	<path class="st1" d="M9.1,278.5c0.2,0,0.4,0,0.6,0c0.3,0,0.6,0.2,0.9,0.3c0.3,0.1,0.5,0.2,0.8,0.4c0.2,0.1,0.3,0.2,0.5,0.3
		c0,0,0.2,0.1,0.2,0.1"/>
	<path class="st1" d="M4.4,282.9c0.6,0.3,1,0.8,1.4,1.3c0.2,0.2,0.4,0.5,0.7,0.7c0.2,0.1,0.4,0.3,0.6,0.4c0.1,0,0.2,0.2,0.2,0.3
		c-0.1,0.1-0.3,0.2-0.4,0.3c-0.2,0.2-0.4,0.3-0.6,0.5c-0.2,0.1-0.4,0.2-0.6,0.3c-0.1,0.1-0.2,0.2-0.3,0.3c-0.2,0.1-0.4,0.3-0.5,0.4
		c-0.1,0.1-0.1,0.2-0.2,0.2"/>
	<path class="st2" d="M4.6,161.6c0.7,0.4,1.3,0.8,1.9,1.2c0.4,0.2,0.7,0.4,1.1,0.7c0.3,0.2,0.7,0.4,1,0.7c0.3,0.2,0.6,0.4,0.8,0.7
		c0.1,0.1,0.3,0.1,0.4,0.3"/>
	<path class="st2" d="M4.7,164.7c0.7,0.3,1.3,0.8,1.9,1.2c0.4,0.2,0.7,0.4,1.1,0.7c0.3,0.2,0.7,0.4,1,0.7c0.3,0.2,0.6,0.4,0.8,0.7
		c0.1,0.1,0.3,0.1,0.4,0.3"/>
	<path class="st2" d="M4.7,168c0.7,0.4,1.3,0.8,1.9,1.2c0.4,0.2,0.7,0.4,1.1,0.7c0.3,0.2,0.7,0.4,1,0.7c0.3,0.2,0.6,0.4,0.8,0.7
		c0.1,0.1,0.3,0.1,0.4,0.3"/>
	<path class="st2" d="M4.6,159.2c0.8,0.2,1.4,0.8,2.1,1.1c0.4,0.2,0.8,0.6,1.2,0.9c0.6,0.4,2.2,1.4,1.6,1.1"/>
	<path class="st2" d="M4.8,156.5c0.5,0,1,0.4,1.4,0.6c0.4,0.2,0.7,0.5,1,0.8c0.5,0.3,0.9,0.7,1.4,1.1c0.2,0.2,0.5,0.4,0.8,0.5
		c0.2,0.1,0.3,0.3,0.5,0.4"/>
	<path class="st2" d="M4.6,154.6c1.8,0.6,3.7,1.7,5,3.1"/>
</g>
</svg>
