<svg width="155" height="155" viewBox="0 0 155 155" fill="none" xmlns="http://www.w3.org/2000/svg">
<circle cx="77.5095" cy="77.5094" r="76.6328" transform="rotate(90 77.5095 77.5094)" fill="#FF80C4"/>
<circle cx="77.5014" cy="77.4989" r="25.5" transform="rotate(7.96235 77.5014 77.4989)" fill="#F6FDD7"/>
<path d="M75.3397 95.5625C67.7429 94.4999 64.085 89.8141 64.8803 84.1279C65.7265 78.0777 71.2251 76.8989 71.2251 76.8989L71.2569 76.6714C71.2569 76.6714 67.6448 74.311 68.3129 69.5346C68.9491 64.9856 73.2974 61.4196 79.9844 62.3549C86.6714 63.2902 89.8744 67.9124 89.2382 72.4614C88.5701 77.2378 84.4489 78.5166 84.4489 78.5166L84.4171 78.744C84.4171 78.744 89.3812 81.3863 88.535 87.4365C87.7396 93.1227 82.9365 96.625 75.3397 95.5625ZM74.1693 70.7711C73.8257 73.2276 75.2416 75.3736 78.1074 75.7744C80.9733 76.1753 82.9236 74.5001 83.2672 72.0437C83.6108 69.5872 82.1822 67.5322 79.3163 67.1314C76.4505 66.7305 74.5129 68.3147 74.1693 70.7711ZM71.268 84.8822C70.8735 87.7025 72.505 90.2961 76.0077 90.786C79.5105 91.276 81.791 89.2296 82.1855 86.4092C82.58 83.5889 80.9484 80.9953 77.4457 80.5053C73.943 80.0154 71.6624 82.0618 71.268 84.8822Z" fill="#FF80C4"/>
</svg>
