<svg width="50" height="50" viewBox="0 0 50 50" fill="none" xmlns="http://www.w3.org/2000/svg">
<circle cx="24.6779" cy="24.7581" r="21.8605" transform="rotate(82.0377 24.6779 24.7581)" fill="#FF80C4"/>
<ellipse cx="24.1841" cy="24.3861" rx="5.39225" ry="5.68372" transform="rotate(82.0377 24.1841 24.3861)" fill="#F6FDD7"/>
<path d="M20.7463 24.4949C20.5172 22.8564 21.2726 21.8204 22.499 21.6489C23.804 21.4663 24.3739 22.537 24.3739 22.537L24.423 22.5302C24.423 22.5302 24.6988 21.6413 25.729 21.4972C26.7102 21.3599 27.7071 22.0508 27.9089 23.4931C28.1106 24.9354 27.3415 25.8733 26.3603 26.0106C25.3301 26.1547 24.821 25.3756 24.821 25.3756L24.7719 25.3824C24.7719 25.3824 24.5176 26.5684 23.2127 26.7509C21.9862 26.9225 20.9755 26.1335 20.7463 24.4949ZM25.8191 22.7851C25.2893 22.8592 24.928 23.2798 25.0144 23.898C25.1009 24.5161 25.5638 24.8215 26.0936 24.7474C26.6234 24.6733 26.9651 24.2554 26.8786 23.6372C26.7922 23.0191 26.3489 22.7109 25.8191 22.7851ZM22.7206 23.0184C22.1123 23.1035 21.6709 23.5953 21.7766 24.3508C21.8822 25.1063 22.4416 25.4583 23.05 25.3732C23.6583 25.2881 24.0997 24.7962 23.994 24.0407C23.8883 23.2852 23.3289 22.9333 22.7206 23.0184Z" fill="#FF80C4"/>
</svg>
