<svg width="1103" height="130" viewBox="0 0 1103 130" fill="none" xmlns="http://www.w3.org/2000/svg">
<path d="M0 1.71997H10.7266L22.0559 86.2439H22.538L33.8672 1.71997H44.5939V127.523H36.1572V45.6405H35.8157L25.1694 126.909H19.4245L8.77816 45.3333H8.43668V127.523H0V1.71997Z" fill="white"/>
<path d="M88.4331 64.6215C88.4331 78.3403 87.5827 90.0115 85.882 99.6351C84.1946 109.259 81.8913 116.609 78.9719 121.687C76.066 126.725 72.7984 129.243 69.1693 129.243C65.5134 129.243 62.2325 126.704 59.3265 121.626C56.4206 116.548 54.1239 109.197 52.4366 99.5737C50.7492 89.95 49.9056 78.2993 49.9056 64.6215C49.9056 50.9028 50.7492 39.2316 52.4366 29.608C54.1239 19.9843 56.4206 12.654 59.3265 7.61699C62.2325 2.539 65.5134 0 69.1693 0C72.7984 0 76.066 2.539 78.9719 7.61699C81.8913 12.654 84.1946 19.9843 85.882 29.608C87.5827 39.2316 88.4331 50.9028 88.4331 64.6215ZM79.6147 64.6215C79.6147 55.735 79.1795 48.2409 78.3091 42.1391C77.452 36.0374 76.2401 31.4098 74.6733 28.2566C73.1064 25.1033 71.2718 23.5267 69.1693 23.5267C67.0669 23.5267 65.2322 25.1033 63.6654 28.2566C62.0986 31.4098 60.88 36.0374 60.0095 42.1391C59.1524 48.2409 58.7239 55.735 58.7239 64.6215C58.7239 73.508 59.1524 81.0021 60.0095 87.1039C60.88 93.2057 62.0986 97.8332 63.6654 100.986C65.2322 104.14 67.0669 105.716 69.1693 105.716C71.2718 105.716 73.1064 104.14 74.6733 100.986C76.2401 97.8332 77.452 93.2057 78.3091 87.1039C79.1795 81.0021 79.6147 73.508 79.6147 64.6215Z" fill="white"/>
<path d="M116.062 37.9006C115.901 32.9455 115.211 29.0961 113.993 26.3523C112.774 23.6086 111.12 22.2367 109.031 22.2367C107.612 22.2367 106.413 22.851 105.436 24.0795C104.458 25.2671 103.708 26.9256 103.186 29.0551C102.677 31.1846 102.422 33.6007 102.422 36.3035C102.396 38.5559 102.55 40.5215 102.884 42.2006C103.233 43.8796 103.708 45.3333 104.311 46.5619C104.913 47.7495 105.61 48.7938 106.4 49.6947C107.19 50.5547 108.034 51.2918 108.931 51.9061L112.627 54.6089C114.421 55.8374 116.068 57.4755 117.568 59.5231C119.068 61.5706 120.367 64.0891 121.465 67.0786C122.563 70.0681 123.414 73.5899 124.016 77.6441C124.632 81.6983 124.947 86.3463 124.96 91.5881C124.947 99.287 124.304 105.962 123.032 111.613C121.773 117.224 119.952 121.585 117.568 124.697C115.198 127.769 112.339 129.304 108.991 129.304C105.67 129.304 102.777 127.748 100.313 124.636C97.8627 121.524 95.9477 116.917 94.5683 110.815C93.2024 104.672 92.486 97.0756 92.419 88.0253H100.836C100.929 92.2433 101.324 95.7652 102.021 98.5908C102.73 101.376 103.675 103.485 104.853 104.918C106.045 106.31 107.391 107.006 108.891 107.006C110.364 107.006 111.643 106.351 112.727 105.041C113.825 103.73 114.676 101.908 115.278 99.5737C115.881 97.2394 116.182 94.5571 116.182 91.5267C116.182 88.701 115.908 86.3258 115.359 84.4011C114.823 82.4764 114.033 80.8383 112.988 79.4869C111.957 78.1355 110.692 76.907 109.192 75.8013L104.712 72.3614C101.244 69.7814 98.5055 65.7477 96.4967 60.2602C94.488 54.7727 93.4903 47.3809 93.5037 38.0849C93.4903 30.4679 94.1532 23.8133 95.4924 18.1211C96.8449 12.4288 98.6996 7.98555 101.057 4.79133C103.413 1.59711 106.092 0 109.091 0C112.145 0 114.81 1.59711 117.086 4.79133C119.376 7.98555 121.157 12.4288 122.429 18.1211C123.702 23.8133 124.358 30.4065 124.398 37.9006H116.062Z" fill="white"/>
<path d="M165.977 45.7633H157.179C157.018 42.2825 156.69 39.1906 156.195 36.4878C155.699 33.7441 155.063 31.4098 154.287 29.4851C153.51 27.5604 152.613 26.0861 151.595 25.0623C150.591 24.0386 149.499 23.5267 148.321 23.5267C146.191 23.5267 144.337 25.1442 142.756 28.3794C141.176 31.5736 139.951 36.2421 139.08 42.3848C138.21 48.4866 137.775 55.8988 137.775 64.6215C137.775 73.5899 138.21 81.125 139.08 87.2268C139.964 93.3285 141.196 97.9356 142.777 101.048C144.357 104.16 146.185 105.716 148.26 105.716C149.425 105.716 150.503 105.245 151.494 104.304C152.499 103.362 153.389 101.99 154.166 100.188C154.943 98.3451 155.586 96.1132 156.094 93.4923C156.617 90.8714 156.978 87.882 157.179 84.524L165.977 84.6468C165.75 90.421 165.181 95.9904 164.27 101.355C163.373 106.679 162.161 111.45 160.634 115.668C159.121 119.845 157.313 123.162 155.211 125.619C153.122 128.035 150.758 129.243 148.12 129.243C144.45 129.243 141.17 126.704 138.277 121.626C135.398 116.548 133.121 109.197 131.447 99.5737C129.787 89.95 128.956 78.2993 128.956 64.6215C128.956 50.9028 129.8 39.2316 131.487 29.608C133.175 19.9843 135.465 12.654 138.357 7.61699C141.25 2.539 144.504 0 148.12 0C150.503 0 152.713 1.02379 154.749 3.07137C156.797 5.11894 158.612 8.1084 160.192 12.0397C161.772 15.9301 163.058 20.701 164.049 26.3523C165.053 32.0036 165.696 38.474 165.977 45.7633Z" fill="white"/>
<path d="M208.888 64.6215C208.888 78.3403 208.037 90.0115 206.336 99.6351C204.649 109.259 202.346 116.609 199.426 121.687C196.52 126.725 193.253 129.243 189.624 129.243C185.968 129.243 182.687 126.704 179.781 121.626C176.875 116.548 174.578 109.197 172.891 99.5737C171.204 89.95 170.36 78.2993 170.36 64.6215C170.36 50.9028 171.204 39.2316 172.891 29.608C174.578 19.9843 176.875 12.654 179.781 7.61699C182.687 2.539 185.968 0 189.624 0C193.253 0 196.52 2.539 199.426 7.61699C202.346 12.654 204.649 19.9843 206.336 29.608C208.037 39.2316 208.888 50.9028 208.888 64.6215ZM200.069 64.6215C200.069 55.735 199.634 48.2409 198.764 42.1391C197.906 36.0374 196.695 31.4098 195.128 28.2566C193.561 25.1033 191.726 23.5267 189.624 23.5267C187.521 23.5267 185.687 25.1033 184.12 28.2566C182.553 31.4098 181.334 36.0374 180.464 42.1391C179.607 48.2409 179.178 55.735 179.178 64.6215C179.178 73.508 179.607 81.0021 180.464 87.1039C181.334 93.2057 182.553 97.8332 184.12 100.986C185.687 104.14 187.521 105.716 189.624 105.716C191.726 105.716 193.561 104.14 195.128 100.986C196.695 97.8332 197.906 93.2057 198.764 87.1039C199.634 81.0021 200.069 73.508 200.069 64.6215Z" fill="white"/>
<path d="M221.913 127.523L210.142 1.71997H219.643L226.453 89.131H226.794L234.307 1.71997H242.442L249.935 89.3153H250.296L257.106 1.71997H266.607L254.836 127.523H246.359L238.525 45.2719H238.204L230.39 127.523H221.913Z" fill="white"/>
<path d="M557 1.71997H567.727L579.056 86.2439H579.538L590.867 1.71997H601.594V127.523H593.157V45.6405H592.816L582.169 126.909H576.424L565.778 45.3333H565.437V127.523H557V1.71997Z" fill="white"/>
<path d="M645.433 64.6215C645.433 78.3403 644.583 90.0115 642.882 99.6351C641.195 109.259 638.891 116.609 635.972 121.687C633.066 126.725 629.798 129.243 626.169 129.243C622.513 129.243 619.233 126.704 616.327 121.626C613.421 116.548 611.124 109.197 609.437 99.5737C607.749 89.95 606.906 78.2993 606.906 64.6215C606.906 50.9028 607.749 39.2316 609.437 29.608C611.124 19.9843 613.421 12.654 616.327 7.61699C619.233 2.539 622.513 0 626.169 0C629.798 0 633.066 2.539 635.972 7.61699C638.891 12.654 641.195 19.9843 642.882 29.608C644.583 39.2316 645.433 50.9028 645.433 64.6215ZM636.615 64.6215C636.615 55.735 636.18 48.2409 635.309 42.1391C634.452 36.0374 633.24 31.4098 631.673 28.2566C630.106 25.1033 628.272 23.5267 626.169 23.5267C624.067 23.5267 622.232 25.1033 620.665 28.2566C619.099 31.4098 617.88 36.0374 617.01 42.1391C616.152 48.2409 615.724 55.735 615.724 64.6215C615.724 73.508 616.152 81.0021 617.01 87.1039C617.88 93.2057 619.099 97.8332 620.665 100.986C622.232 104.14 624.067 105.716 626.169 105.716C628.272 105.716 630.106 104.14 631.673 100.986C633.24 97.8332 634.452 93.2057 635.309 87.1039C636.18 81.0021 636.615 73.508 636.615 64.6215Z" fill="white"/>
<path d="M673.062 37.9006C672.901 32.9455 672.211 29.0961 670.993 26.3523C669.774 23.6086 668.12 22.2367 666.031 22.2367C664.612 22.2367 663.413 22.851 662.436 24.0795C661.458 25.2671 660.708 26.9256 660.186 29.0551C659.677 31.1846 659.422 33.6007 659.422 36.3035C659.396 38.5559 659.55 40.5215 659.884 42.2006C660.233 43.8796 660.708 45.3333 661.311 46.5619C661.913 47.7495 662.61 48.7938 663.4 49.6947C664.19 50.5547 665.034 51.2918 665.931 51.9061L669.627 54.6089C671.421 55.8374 673.068 57.4755 674.568 59.5231C676.068 61.5706 677.367 64.0891 678.465 67.0786C679.563 70.0681 680.414 73.5899 681.016 77.6441C681.632 81.6983 681.947 86.3463 681.96 91.5881C681.947 99.287 681.304 105.962 680.032 111.613C678.773 117.224 676.952 121.585 674.568 124.697C672.198 127.769 669.339 129.304 665.991 129.304C662.67 129.304 659.777 127.748 657.313 124.636C654.863 121.524 652.948 116.917 651.568 110.815C650.202 104.672 649.486 97.0756 649.419 88.0253H657.836C657.929 92.2433 658.324 95.7652 659.021 98.5908C659.73 101.376 660.675 103.485 661.853 104.918C663.045 106.31 664.391 107.006 665.891 107.006C667.364 107.006 668.643 106.351 669.727 105.041C670.825 103.73 671.676 101.908 672.278 99.5737C672.881 97.2394 673.182 94.5571 673.182 91.5267C673.182 88.701 672.908 86.3258 672.359 84.4011C671.823 82.4764 671.033 80.8383 669.988 79.4869C668.957 78.1355 667.692 76.907 666.192 75.8013L661.712 72.3614C658.244 69.7814 655.505 65.7477 653.497 60.2602C651.488 54.7727 650.49 47.3809 650.504 38.0849C650.49 30.4679 651.153 23.8133 652.492 18.1211C653.845 12.4288 655.7 7.98555 658.057 4.79133C660.413 1.59711 663.092 0 666.091 0C669.145 0 671.81 1.59711 674.086 4.79133C676.376 7.98555 678.157 12.4288 679.429 18.1211C680.702 23.8133 681.358 30.4065 681.398 37.9006H673.062Z" fill="white"/>
<path d="M722.977 45.7633H714.179C714.018 42.2825 713.69 39.1906 713.195 36.4878C712.699 33.7441 712.063 31.4098 711.287 29.4851C710.51 27.5604 709.613 26.0861 708.595 25.0623C707.591 24.0386 706.499 23.5267 705.321 23.5267C703.191 23.5267 701.337 25.1442 699.756 28.3794C698.176 31.5736 696.951 36.2421 696.08 42.3848C695.21 48.4866 694.775 55.8988 694.775 64.6215C694.775 73.5899 695.21 81.125 696.08 87.2268C696.964 93.3285 698.196 97.9356 699.777 101.048C701.357 104.16 703.185 105.716 705.26 105.716C706.425 105.716 707.503 105.245 708.494 104.304C709.499 103.362 710.389 101.99 711.166 100.188C711.943 98.3451 712.586 96.1132 713.094 93.4923C713.617 90.8714 713.978 87.882 714.179 84.524L722.977 84.6468C722.75 90.421 722.181 95.9904 721.27 101.355C720.373 106.679 719.161 111.45 717.634 115.668C716.121 119.845 714.313 123.162 712.211 125.619C710.122 128.035 707.758 129.243 705.12 129.243C701.45 129.243 698.17 126.704 695.277 121.626C692.398 116.548 690.121 109.197 688.447 99.5737C686.787 89.95 685.956 78.2993 685.956 64.6215C685.956 50.9028 686.8 39.2316 688.487 29.608C690.175 19.9843 692.465 12.654 695.357 7.61699C698.25 2.539 701.504 0 705.12 0C707.503 0 709.713 1.02379 711.749 3.07137C713.797 5.11894 715.612 8.1084 717.192 12.0397C718.772 15.9301 720.058 20.701 721.049 26.3523C722.053 32.0036 722.696 38.474 722.977 45.7633Z" fill="white"/>
<path d="M765.888 64.6215C765.888 78.3403 765.037 90.0115 763.336 99.6351C761.649 109.259 759.346 116.609 756.426 121.687C753.52 126.725 750.253 129.243 746.624 129.243C742.968 129.243 739.687 126.704 736.781 121.626C733.875 116.548 731.578 109.197 729.891 99.5737C728.204 89.95 727.36 78.2993 727.36 64.6215C727.36 50.9028 728.204 39.2316 729.891 29.608C731.578 19.9843 733.875 12.654 736.781 7.61699C739.687 2.539 742.968 0 746.624 0C750.253 0 753.52 2.539 756.426 7.61699C759.346 12.654 761.649 19.9843 763.336 29.608C765.037 39.2316 765.888 50.9028 765.888 64.6215ZM757.069 64.6215C757.069 55.735 756.634 48.2409 755.764 42.1391C754.906 36.0374 753.695 31.4098 752.128 28.2566C750.561 25.1033 748.726 23.5267 746.624 23.5267C744.521 23.5267 742.687 25.1033 741.12 28.2566C739.553 31.4098 738.334 36.0374 737.464 42.1391C736.607 48.2409 736.178 55.735 736.178 64.6215C736.178 73.508 736.607 81.0021 737.464 87.1039C738.334 93.2057 739.553 97.8332 741.12 100.986C742.687 104.14 744.521 105.716 746.624 105.716C748.726 105.716 750.561 104.14 752.128 100.986C753.695 97.8332 754.906 93.2057 755.764 87.1039C756.634 81.0021 757.069 73.508 757.069 64.6215Z" fill="white"/>
<path d="M778.913 127.523L767.142 1.71997H776.643L783.453 89.131H783.794L791.307 1.71997H799.442L806.935 89.3153H807.296L814.106 1.71997H823.607L811.836 127.523H803.359L795.525 45.2719H795.204L787.39 127.523H778.913Z" fill="white"/>
<path d="M278.604 1.71997H289.331L300.66 86.2439H301.142L312.472 1.71997H323.198V127.523H314.762V45.6405H314.42L303.774 126.909H298.029L287.383 45.3333H287.041V127.523H278.604V1.71997Z" fill="white"/>
<path d="M367.038 64.6215C367.038 78.3403 366.187 90.0115 364.486 99.6351C362.799 109.259 360.496 116.609 357.576 121.687C354.67 126.725 351.403 129.243 347.774 129.243C344.118 129.243 340.837 126.704 337.931 121.626C335.025 116.548 332.728 109.197 331.041 99.5737C329.354 89.95 328.51 78.2993 328.51 64.6215C328.51 50.9028 329.354 39.2316 331.041 29.608C332.728 19.9843 335.025 12.654 337.931 7.61699C340.837 2.539 344.118 0 347.774 0C351.403 0 354.67 2.539 357.576 7.61699C360.496 12.654 362.799 19.9843 364.486 29.608C366.187 39.2316 367.038 50.9028 367.038 64.6215ZM358.219 64.6215C358.219 55.735 357.784 48.2409 356.914 42.1391C356.056 36.0374 354.845 31.4098 353.278 28.2566C351.711 25.1033 349.876 23.5267 347.774 23.5267C345.671 23.5267 343.837 25.1033 342.27 28.2566C340.703 31.4098 339.484 36.0374 338.614 42.1391C337.757 48.2409 337.328 55.735 337.328 64.6215C337.328 73.508 337.757 81.0021 338.614 87.1039C339.484 93.2057 340.703 97.8332 342.27 100.986C343.837 104.14 345.671 105.716 347.774 105.716C349.876 105.716 351.711 104.14 353.278 100.986C354.845 97.8332 356.056 93.2057 356.914 87.1039C357.784 81.0021 358.219 73.508 358.219 64.6215Z" fill="white"/>
<path d="M394.666 37.9006C394.506 32.9455 393.816 29.0961 392.597 26.3523C391.379 23.6086 389.725 22.2367 387.636 22.2367C386.216 22.2367 385.018 22.851 384.04 24.0795C383.063 25.2671 382.313 26.9256 381.79 29.0551C381.281 31.1846 381.027 33.6007 381.027 36.3035C381 38.5559 381.154 40.5215 381.489 42.2006C381.837 43.8796 382.313 45.3333 382.915 46.5619C383.518 47.7495 384.214 48.7938 385.004 49.6947C385.794 50.5547 386.638 51.2918 387.535 51.9061L391.231 54.6089C393.026 55.8374 394.673 57.4755 396.173 59.5231C397.673 61.5706 398.972 64.0891 400.07 67.0786C401.168 70.0681 402.018 73.5899 402.621 77.6441C403.237 81.6983 403.552 86.3463 403.565 91.5881C403.552 99.287 402.909 105.962 401.637 111.613C400.378 117.224 398.557 121.585 396.173 124.697C393.803 127.769 390.943 129.304 387.596 129.304C384.274 129.304 381.382 127.748 378.918 124.636C376.467 121.524 374.552 116.917 373.173 110.815C371.807 104.672 371.09 97.0756 371.023 88.0253H379.44C379.534 92.2433 379.929 95.7652 380.625 98.5908C381.335 101.376 382.279 103.485 383.458 104.918C384.649 106.31 385.995 107.006 387.495 107.006C388.968 107.006 390.247 106.351 391.332 105.041C392.43 103.73 393.28 101.908 393.883 99.5737C394.486 97.2394 394.787 94.5571 394.787 91.5267C394.787 88.701 394.512 86.3258 393.963 84.4011C393.428 82.4764 392.637 80.8383 391.593 79.4869C390.562 78.1355 389.296 76.907 387.796 75.8013L383.317 72.3614C379.849 69.7814 377.11 65.7477 375.101 60.2602C373.092 54.7727 372.095 47.3809 372.108 38.0849C372.095 30.4679 372.758 23.8133 374.097 18.1211C375.449 12.4288 377.304 7.98555 379.661 4.79133C382.018 1.59711 384.696 0 387.696 0C390.749 0 393.414 1.59711 395.691 4.79133C397.981 7.98555 399.762 12.4288 401.034 18.1211C402.306 23.8133 402.962 30.4065 403.003 37.9006H394.666Z" fill="white"/>
<path d="M444.582 45.7633H435.784C435.623 42.2825 435.295 39.1906 434.799 36.4878C434.304 33.7441 433.668 31.4098 432.891 29.4851C432.114 27.5604 431.217 26.0861 430.199 25.0623C429.195 24.0386 428.104 23.5267 426.925 23.5267C424.796 23.5267 422.941 25.1442 421.361 28.3794C419.781 31.5736 418.555 36.2421 417.685 42.3848C416.815 48.4866 416.379 55.8988 416.379 64.6215C416.379 73.5899 416.815 81.125 417.685 87.2268C418.569 93.3285 419.801 97.9356 421.381 101.048C422.961 104.16 424.789 105.716 426.865 105.716C428.03 105.716 429.108 105.245 430.099 104.304C431.103 103.362 431.994 101.99 432.771 100.188C433.547 98.3451 434.19 96.1132 434.699 93.4923C435.221 90.8714 435.583 87.882 435.784 84.524L444.582 84.6468C444.354 90.421 443.785 95.9904 442.874 101.355C441.977 106.679 440.765 111.45 439.239 115.668C437.725 119.845 435.918 123.162 433.815 125.619C431.726 128.035 429.362 129.243 426.724 129.243C423.055 129.243 419.774 126.704 416.881 121.626C414.002 116.548 411.726 109.197 410.052 99.5737C408.391 89.95 407.561 78.2993 407.561 64.6215C407.561 50.9028 408.405 39.2316 410.092 29.608C411.779 19.9843 414.069 12.654 416.962 7.61699C419.854 2.539 423.109 0 426.724 0C429.108 0 431.318 1.02379 433.353 3.07137C435.402 5.11894 437.217 8.1084 438.797 12.0397C440.377 15.9301 441.663 20.701 442.654 26.3523C443.658 32.0036 444.301 38.474 444.582 45.7633Z" fill="white"/>
<path d="M487.492 64.6215C487.492 78.3403 486.642 90.0115 484.941 99.6351C483.254 109.259 480.95 116.609 478.031 121.687C475.125 126.725 471.857 129.243 468.228 129.243C464.572 129.243 461.291 126.704 458.386 121.626C455.48 116.548 453.183 109.197 451.496 99.5737C449.808 89.95 448.965 78.2993 448.965 64.6215C448.965 50.9028 449.808 39.2316 451.496 29.608C453.183 19.9843 455.48 12.654 458.386 7.61699C461.291 2.539 464.572 0 468.228 0C471.857 0 475.125 2.539 478.031 7.61699C480.95 12.654 483.254 19.9843 484.941 29.608C486.642 39.2316 487.492 50.9028 487.492 64.6215ZM478.674 64.6215C478.674 55.735 478.238 48.2409 477.368 42.1391C476.511 36.0374 475.299 31.4098 473.732 28.2566C472.165 25.1033 470.331 23.5267 468.228 23.5267C466.126 23.5267 464.291 25.1033 462.724 28.2566C461.158 31.4098 459.939 36.0374 459.068 42.1391C458.211 48.2409 457.783 55.735 457.783 64.6215C457.783 73.508 458.211 81.0021 459.068 87.1039C459.939 93.2057 461.158 97.8332 462.724 100.986C464.291 104.14 466.126 105.716 468.228 105.716C470.331 105.716 472.165 104.14 473.732 100.986C475.299 97.8332 476.511 93.2057 477.368 87.1039C478.238 81.0021 478.674 73.508 478.674 64.6215Z" fill="white"/>
<path d="M500.517 127.523L488.746 1.71997H498.247L505.057 89.131H505.399L512.911 1.71997H521.047L528.539 89.3153H528.901L535.71 1.71997H545.212L533.44 127.523H524.964L517.13 45.2719H516.808L508.994 127.523H500.517Z" fill="white"/>
<path d="M835.604 1.71997H846.331L857.66 86.2439H858.142L869.472 1.71997H880.198V127.523H871.762V45.6405H871.42L860.774 126.909H855.029L844.383 45.3333H844.041V127.523H835.604V1.71997Z" fill="white"/>
<path d="M924.038 64.6215C924.038 78.3403 923.187 90.0115 921.486 99.6351C919.799 109.259 917.496 116.609 914.576 121.687C911.67 126.725 908.403 129.243 904.774 129.243C901.118 129.243 897.837 126.704 894.931 121.626C892.025 116.548 889.728 109.197 888.041 99.5737C886.354 89.95 885.51 78.2993 885.51 64.6215C885.51 50.9028 886.354 39.2316 888.041 29.608C889.728 19.9843 892.025 12.654 894.931 7.61699C897.837 2.539 901.118 0 904.774 0C908.403 0 911.67 2.539 914.576 7.61699C917.496 12.654 919.799 19.9843 921.486 29.608C923.187 39.2316 924.038 50.9028 924.038 64.6215ZM915.219 64.6215C915.219 55.735 914.784 48.2409 913.914 42.1391C913.056 36.0374 911.845 31.4098 910.278 28.2566C908.711 25.1033 906.876 23.5267 904.774 23.5267C902.671 23.5267 900.837 25.1033 899.27 28.2566C897.703 31.4098 896.484 36.0374 895.614 42.1391C894.757 48.2409 894.328 55.735 894.328 64.6215C894.328 73.508 894.757 81.0021 895.614 87.1039C896.484 93.2057 897.703 97.8332 899.27 100.986C900.837 104.14 902.671 105.716 904.774 105.716C906.876 105.716 908.711 104.14 910.278 100.986C911.845 97.8332 913.056 93.2057 913.914 87.1039C914.784 81.0021 915.219 73.508 915.219 64.6215Z" fill="white"/>
<path d="M951.666 37.9006C951.506 32.9455 950.816 29.0961 949.597 26.3523C948.379 23.6086 946.725 22.2367 944.636 22.2367C943.216 22.2367 942.018 22.851 941.04 24.0795C940.063 25.2671 939.313 26.9256 938.79 29.0551C938.281 31.1846 938.027 33.6007 938.027 36.3035C938 38.5559 938.154 40.5215 938.489 42.2006C938.837 43.8796 939.313 45.3333 939.915 46.5619C940.518 47.7495 941.214 48.7938 942.004 49.6947C942.794 50.5547 943.638 51.2918 944.535 51.9061L948.231 54.6089C950.026 55.8374 951.673 57.4755 953.173 59.5231C954.673 61.5706 955.972 64.0891 957.07 67.0786C958.168 70.0681 959.018 73.5899 959.621 77.6441C960.237 81.6983 960.552 86.3463 960.565 91.5881C960.552 99.287 959.909 105.962 958.637 111.613C957.378 117.224 955.557 121.585 953.173 124.697C950.803 127.769 947.943 129.304 944.596 129.304C941.274 129.304 938.382 127.748 935.918 124.636C933.467 121.524 931.552 116.917 930.173 110.815C928.807 104.672 928.09 97.0756 928.023 88.0253H936.44C936.534 92.2433 936.929 95.7652 937.625 98.5908C938.335 101.376 939.279 103.485 940.458 104.918C941.649 106.31 942.995 107.006 944.495 107.006C945.968 107.006 947.247 106.351 948.332 105.041C949.43 103.73 950.28 101.908 950.883 99.5737C951.486 97.2394 951.787 94.5571 951.787 91.5267C951.787 88.701 951.512 86.3258 950.963 84.4011C950.428 82.4764 949.637 80.8383 948.593 79.4869C947.562 78.1355 946.296 76.907 944.796 75.8013L940.317 72.3614C936.849 69.7814 934.11 65.7477 932.101 60.2602C930.092 54.7727 929.095 47.3809 929.108 38.0849C929.095 30.4679 929.758 23.8133 931.097 18.1211C932.449 12.4288 934.304 7.98555 936.661 4.79133C939.018 1.59711 941.696 0 944.696 0C947.749 0 950.414 1.59711 952.691 4.79133C954.981 7.98555 956.762 12.4288 958.034 18.1211C959.306 23.8133 959.962 30.4065 960.003 37.9006H951.666Z" fill="white"/>
<path d="M1001.58 45.7633H992.784C992.623 42.2825 992.295 39.1906 991.799 36.4878C991.304 33.7441 990.668 31.4098 989.891 29.4851C989.114 27.5604 988.217 26.0861 987.199 25.0623C986.195 24.0386 985.104 23.5267 983.925 23.5267C981.796 23.5267 979.941 25.1442 978.361 28.3794C976.781 31.5736 975.555 36.2421 974.685 42.3848C973.815 48.4866 973.379 55.8988 973.379 64.6215C973.379 73.5899 973.815 81.125 974.685 87.2268C975.569 93.3285 976.801 97.9356 978.381 101.048C979.961 104.16 981.789 105.716 983.865 105.716C985.03 105.716 986.108 105.245 987.099 104.304C988.103 103.362 988.994 101.99 989.771 100.188C990.547 98.3451 991.19 96.1132 991.699 93.4923C992.221 90.8714 992.583 87.882 992.784 84.524L1001.58 84.6468C1001.35 90.421 1000.79 95.9904 999.874 101.355C998.977 106.679 997.765 111.45 996.239 115.668C994.725 119.845 992.918 123.162 990.815 125.619C988.726 128.035 986.362 129.243 983.724 129.243C980.055 129.243 976.774 126.704 973.881 121.626C971.002 116.548 968.726 109.197 967.052 99.5737C965.391 89.95 964.561 78.2993 964.561 64.6215C964.561 50.9028 965.405 39.2316 967.092 29.608C968.779 19.9843 971.069 12.654 973.962 7.61699C976.854 2.539 980.109 0 983.724 0C986.108 0 988.318 1.02379 990.353 3.07137C992.402 5.11894 994.217 8.1084 995.797 12.0397C997.377 15.9301 998.663 20.701 999.654 26.3523C1000.66 32.0036 1001.3 38.474 1001.58 45.7633Z" fill="white"/>
<path d="M1044.49 64.6215C1044.49 78.3403 1043.64 90.0115 1041.94 99.6351C1040.25 109.259 1037.95 116.609 1035.03 121.687C1032.12 126.725 1028.86 129.243 1025.23 129.243C1021.57 129.243 1018.29 126.704 1015.39 121.626C1012.48 116.548 1010.18 109.197 1008.5 99.5737C1006.81 89.95 1005.96 78.2993 1005.96 64.6215C1005.96 50.9028 1006.81 39.2316 1008.5 29.608C1010.18 19.9843 1012.48 12.654 1015.39 7.61699C1018.29 2.539 1021.57 0 1025.23 0C1028.86 0 1032.12 2.539 1035.03 7.61699C1037.95 12.654 1040.25 19.9843 1041.94 29.608C1043.64 39.2316 1044.49 50.9028 1044.49 64.6215ZM1035.67 64.6215C1035.67 55.735 1035.24 48.2409 1034.37 42.1391C1033.51 36.0374 1032.3 31.4098 1030.73 28.2566C1029.17 25.1033 1027.33 23.5267 1025.23 23.5267C1023.13 23.5267 1021.29 25.1033 1019.72 28.2566C1018.16 31.4098 1016.94 36.0374 1016.07 42.1391C1015.21 48.2409 1014.78 55.735 1014.78 64.6215C1014.78 73.508 1015.21 81.0021 1016.07 87.1039C1016.94 93.2057 1018.16 97.8332 1019.72 100.986C1021.29 104.14 1023.13 105.716 1025.23 105.716C1027.33 105.716 1029.17 104.14 1030.73 100.986C1032.3 97.8332 1033.51 93.2057 1034.37 87.1039C1035.24 81.0021 1035.67 73.508 1035.67 64.6215Z" fill="white"/>
<path d="M1057.52 127.523L1045.75 1.71997H1055.25L1062.06 89.131H1062.4L1069.91 1.71997H1078.05L1085.54 89.3153H1085.9L1092.71 1.71997H1102.21L1090.44 127.523H1081.96L1074.13 45.2719H1073.81L1065.99 127.523H1057.52Z" fill="white"/>
</svg>
