<svg width="114" height="111" viewBox="0 0 114 111" fill="none" xmlns="http://www.w3.org/2000/svg">
<path d="M54.802 0.0592227L57.5765 26.6072L53.236 27.1945L49.5246 0.773317L54.802 0.0592227ZM56.851 38.7214C56.0682 38.8273 55.3436 38.4873 54.6769 37.7013C54.0087 36.903 53.6041 35.8939 53.463 34.6738C53.3076 33.4682 53.4579 32.3964 53.9139 31.4586C54.3699 30.5207 54.9892 29.9988 55.7719 29.8929C56.523 29.7913 57.2359 30.1329 57.9105 30.9178C58.585 31.7027 59 32.6979 59.1554 33.9035C59.2468 34.7173 59.1995 35.4809 59.0135 36.1945C58.8338 36.8947 58.5554 37.4769 58.1781 37.941C57.7993 38.3928 57.357 38.6529 56.851 38.7214Z" fill="white"/>
<path d="M29.4445 5.28165L42.8267 28.3773L39.1053 30.6873L24.9199 8.0902L29.4445 5.28165ZM47.1154 39.7301C46.4444 40.1467 45.644 40.1325 44.7143 39.6877C43.7782 39.2322 42.9965 38.4765 42.3691 37.4207C41.7346 36.3838 41.4338 35.3443 41.4666 34.3019C41.4995 33.2596 41.8515 32.5302 42.5226 32.1136C43.1665 31.7139 43.9567 31.7344 44.8932 32.175C45.8296 32.6157 46.6151 33.3544 47.2497 34.3912C47.6657 35.0965 47.9346 35.8128 48.0564 36.5402C48.1786 37.2526 48.1624 37.8978 48.0078 38.4755C47.8467 39.0426 47.5493 39.4609 47.1154 39.7301Z" fill="white"/>
<path d="M7.99285 26.1561L31.2855 39.1924L29.2633 43.0777L5.53424 30.8801L7.99285 26.1561ZM40.7662 46.7685C40.4015 47.4691 39.7059 47.8653 38.6794 47.957C37.6419 48.0428 36.584 47.7917 35.5058 47.2037C34.431 46.6357 33.6419 45.8951 33.1384 44.9818C32.6349 44.0686 32.5655 43.2617 32.9301 42.561C33.28 41.8887 33.9701 41.5032 35.0003 41.4044C36.0306 41.3056 37.083 41.5402 38.1577 42.1082C38.8754 42.5026 39.4721 42.9814 39.948 43.5448C40.4166 44.0952 40.7318 44.6584 40.8935 45.2342C41.0443 45.8041 41.0019 46.3155 40.7662 46.7685Z" fill="white"/>
<path d="M103.407 22.1107L82.4924 38.6955L79.668 35.3477L99.9734 18.0403L103.407 22.1107ZM71.8801 44.5827C71.3708 43.979 71.2689 43.185 71.5745 42.2007C71.8896 41.2086 72.5242 40.3257 73.4781 39.552C74.4121 38.7741 75.3972 38.3259 76.4333 38.2075C77.4694 38.0892 78.2421 38.3318 78.7514 38.9355C79.2402 39.5148 79.3343 40.2997 79.0339 41.2901C78.7335 42.2804 78.1162 43.1646 77.1822 43.9426C76.5445 44.4563 75.8747 44.8261 75.1727 45.0519C74.4854 45.276 73.8447 45.3534 73.2507 45.284C72.6662 45.2067 72.2093 44.973 71.8801 44.5827Z" fill="white"/>
<path d="M80.9517 3.35228L71.2671 28.226L67.1391 26.7614L75.9328 1.57164L80.9517 3.35228ZM65.0772 38.6646C64.3328 38.4005 63.8441 37.7665 63.6111 36.7625C63.3824 35.7469 63.4845 34.6645 63.9175 33.5152C64.3312 32.3721 64.9554 31.488 65.7901 30.8629C66.6248 30.2378 67.4144 30.0572 68.1587 30.3213C68.873 30.5747 69.3505 31.2048 69.591 32.2114C69.8315 33.218 69.7449 34.2928 69.3312 35.4358C69.0401 36.2012 68.6485 36.8585 68.1564 37.4078C67.6762 37.9481 67.1622 38.3383 66.6143 38.5782C66.0708 38.8065 65.5584 38.8353 65.0772 38.6646Z" fill="white"/>
<path d="M113.647 46.5524L87.5846 52.316L86.5095 48.07L112.34 41.3899L113.647 46.5524ZM75.4662 52.9673C75.2723 52.2016 75.5281 51.443 76.2335 50.6916C76.9509 49.9373 77.9078 49.421 79.104 49.1426C80.2842 48.8517 81.3661 48.8796 82.3496 49.2265C83.3331 49.5733 83.9218 50.1296 84.1156 50.8952C84.3017 51.63 84.043 52.3769 83.3396 53.1361C82.6361 53.8952 81.6943 54.4203 80.5141 54.7112C79.7159 54.8942 78.9518 54.9337 78.2217 54.8297C77.5057 54.7305 76.8957 54.5198 76.3919 54.1975C75.9001 53.8723 75.5916 53.4622 75.4662 52.9673Z" fill="white"/>
<path d="M110.971 75.5534L85.4272 67.8059L86.5707 63.5777L112.361 70.4126L110.971 75.5534ZM74.5444 62.4351C74.7506 61.6727 75.3453 61.1368 76.3284 60.8274C77.3234 60.5215 78.4105 60.5403 79.5897 60.8838C80.7611 61.2086 81.6904 61.7631 82.3778 62.5474C83.0651 63.3316 83.3057 64.105 83.0995 64.8675C82.9016 65.5991 82.3101 66.1234 81.3249 66.4405C80.3397 66.7575 79.2614 66.7537 78.09 66.4289C77.3046 66.1973 76.6192 65.8573 76.0338 65.4089C75.4582 64.9715 75.0298 64.489 74.7485 63.9611C74.4791 63.4367 74.4111 62.928 74.5444 62.4351Z" fill="white"/>
<path d="M30.7768 104L41.2191 79.4348L45.3002 81.0251L35.7388 105.934L30.7768 104ZM47.726 69.1907C48.462 69.4775 48.931 70.1262 49.1331 71.1368C49.3306 72.1589 49.1953 73.2378 48.7273 74.3733C48.2788 75.5031 47.6278 76.3676 46.7743 76.9669C45.9209 77.5662 45.1262 77.7224 44.3902 77.4356C43.684 77.1604 43.2261 76.5161 43.0166 75.5026C42.807 74.4891 42.9265 73.4174 43.375 72.2876C43.6895 71.5315 44.1011 70.8865 44.6097 70.3526C45.1062 69.8272 45.632 69.453 46.1869 69.23C46.7372 69.0184 47.2503 69.0053 47.726 69.1907Z" fill="white"/>
<path d="M56.513 110.934L57.069 84.2468L61.4489 84.2051L61.8382 110.883L56.513 110.934ZM59.2988 72.3175C60.0886 72.31 60.7653 72.7377 61.3288 73.6006C61.8923 74.476 62.168 75.5277 62.1559 76.7558C62.1598 77.9714 61.8771 79.016 61.3078 79.8898C60.7384 80.7635 60.0588 81.2041 59.269 81.2116C58.5111 81.2189 57.8464 80.7911 57.2749 79.9282C56.7034 79.0654 56.4157 78.0261 56.4118 76.8106C56.4226 75.9918 56.5647 75.24 56.8382 74.5551C57.1037 73.8828 57.4526 73.3399 57.8847 72.9264C58.3169 72.5254 58.7882 72.3224 59.2988 72.3175Z" fill="white"/>
<path d="M88.7177 104.055L74.1045 81.7175L77.6954 79.2095L93.0836 101.005L88.7177 104.055ZM69.2072 70.6136C69.8548 70.1614 70.6547 70.1322 71.6071 70.526C72.5665 70.9301 73.388 71.6424 74.0717 72.6627C74.7614 73.6636 75.1181 74.6854 75.1417 75.728C75.1653 76.7706 74.8534 77.518 74.2058 77.9703C73.5845 78.4043 72.7943 78.4266 71.8354 78.0373C70.8764 77.648 70.0521 76.9529 69.3623 75.952C68.9088 75.2702 68.6014 74.5695 68.4404 73.8499C68.2798 73.1451 68.261 72.5 68.3842 71.9147C68.5143 71.3397 68.7886 70.906 69.2072 70.6136Z" fill="white"/>
<path d="M8.00918 81.8106L30.7238 67.7914L33.1363 71.4472L10.9425 86.2555L8.00918 81.8106ZM41.953 63.1886C42.388 63.8479 42.3961 64.6483 41.9773 65.59C41.548 66.5384 40.8144 67.3408 39.7764 67.9973C38.7576 68.6605 37.7268 68.9901 36.6839 68.9862C35.6411 68.9823 34.9022 68.6508 34.4671 67.9916C34.0496 67.359 34.0481 66.5685 34.4626 65.6201C34.877 64.6718 35.5936 63.8661 36.6124 63.2029C37.3059 62.7675 38.0144 62.4788 38.738 62.3367C39.4469 62.1947 40.0922 62.193 40.674 62.3315C41.2454 62.4768 41.6717 62.7625 41.953 63.1886Z" fill="white"/>
<path d="M0.0527209 57.2466L26.6327 54.7972L27.1668 59.1446L0.702158 62.5323L0.0527209 57.2466ZM38.7371 55.671C38.8334 56.455 38.4845 57.1754 37.6904 57.8325C36.8841 58.4908 35.87 58.8831 34.6483 59.0092C33.4409 59.1498 32.3711 58.9864 31.4389 58.519C30.5066 58.0515 29.9924 57.4258 29.896 56.6419C29.8036 55.8896 30.1539 55.181 30.947 54.5161C31.7401 53.8511 32.7404 53.4484 33.9478 53.3078C34.7626 53.2263 35.5256 53.283 36.2369 53.4777C36.9348 53.6659 37.5135 53.9515 37.973 54.3344C38.4201 54.7187 38.6748 55.1642 38.7371 55.671Z" fill="white"/>
</svg>
