<svg width="58" height="58" viewBox="0 0 58 58" fill="none" xmlns="http://www.w3.org/2000/svg">
<circle cx="28.7833" cy="28.7834" r="28.3854" fill="white"/>
<path d="M35.0673 29.3511C35.0673 33.3517 31.9924 36.5813 28.2156 36.5813C24.4388 36.5813 21.3639 33.3517 21.3639 29.3511C21.3639 25.3504 24.4388 22.1209 28.2156 22.1209C31.9924 22.1209 35.0673 25.3504 35.0673 29.3511Z" fill="white" stroke="#FFB2DB" stroke-width="0.3"/>
<path d="M31.501 25.1293V26.628H27.2772L26.8685 28.9443H26.9366C26.9366 28.9443 27.5497 28.1268 28.8441 28.1268C30.956 28.1268 31.9778 29.6255 31.9778 31.4649C31.9778 33.5086 30.6154 34.8711 28.4354 34.8711C26.3235 34.8711 24.8247 33.6449 24.8247 31.8055H26.7322C26.7322 32.8274 27.4135 33.4405 28.4354 33.4405C29.3891 33.4405 30.0704 32.7593 30.0704 31.4649C30.0704 30.1705 29.3891 29.4893 28.2991 29.4893C27.141 29.4893 26.6641 30.443 26.6641 30.443H24.961L25.9147 25.1293H31.501Z" fill="#FFB2DB"/>
</svg>
