<svg width="58" height="58" viewBox="0 0 58 58" fill="none" xmlns="http://www.w3.org/2000/svg">
<circle cx="28.7833" cy="28.7834" r="28.3854" fill="white"/>
<path d="M35.1227 29.3509C35.1227 33.3794 32.0257 36.6365 28.2156 36.6365C24.4055 36.6365 21.3085 33.3794 21.3085 29.3509C21.3085 25.3225 24.4055 22.0654 28.2156 22.0654C32.0257 22.0654 35.1227 25.3225 35.1227 29.3509Z" fill="white" stroke="#FFB2DB" stroke-width="0.189236"/>
<path d="M28.6766 33.8106C26.4012 33.8106 25.1341 32.5844 25.1341 30.8813C25.1341 29.0691 26.7009 28.4969 26.7009 28.4969V28.4288C26.7009 28.4288 25.5428 27.8838 25.5428 26.4531C25.5428 25.0907 26.6737 23.8644 28.6766 23.8644C30.6794 23.8644 31.8103 25.0907 31.8103 26.4531C31.8103 27.8838 30.6522 28.4288 30.6522 28.4288V28.4969C30.6522 28.4969 32.2191 29.0691 32.2191 30.8813C32.2191 32.5844 30.9519 33.8106 28.6766 33.8106ZM27.3141 26.5758C27.3141 27.3115 27.8182 27.8838 28.6766 27.8838C29.5349 27.8838 30.0391 27.3115 30.0391 26.5758C30.0391 25.84 29.5349 25.295 28.6766 25.295C27.8182 25.295 27.3141 25.84 27.3141 26.5758ZM27.0416 30.8404C27.0416 31.6851 27.6274 32.38 28.6766 32.38C29.7257 32.38 30.3116 31.6851 30.3116 30.8404C30.3116 29.9956 29.7257 29.3008 28.6766 29.3008C27.6274 29.3008 27.0416 29.9956 27.0416 30.8404Z" fill="#FFB2DB"/>
</svg>
