<svg width="58" height="58" viewBox="0 0 58 58" fill="none" xmlns="http://www.w3.org/2000/svg">
<circle cx="28.7833" cy="28.7834" r="28.3854" fill="white"/>
<path d="M35.0673 29.3511C35.0673 33.3518 31.9924 36.5813 28.2156 36.5813C24.4388 36.5813 21.3639 33.3518 21.3639 29.3511C21.3639 25.3504 24.4388 22.1209 28.2156 22.1209C31.9924 22.1209 35.0673 25.3504 35.0673 29.3511Z" fill="white" stroke="#FFB2DB" stroke-width="0.3"/>
<path d="M26.1175 30.9872L23.7808 27.7168L25.0002 26.8455L31.8821 26.8682L32.9911 28.4203L28.4459 31.6679L29.3964 32.9982L28.1769 33.8695L27.2264 32.5392L25.231 33.965L24.122 32.413L26.1175 30.9872ZM25.9507 28.1758L27.3369 30.1159L30.1084 28.1356L25.9507 28.1758Z" fill="#FFB2DB"/>
</svg>
